<?xml version="1.0" encoding="UTF-8"?>
<svg id="Layer_1" xmlns="http://www.w3.org/2000/svg" version="1.1" xmlns:xlink="http://www.w3.org/1999/xlink" viewBox="0 0 1080 1080">
  <!-- Generator: Adobe Illustrator 30.2.1, SVG Export Plug-In . SVG Version: 2.1.1 Build 1)  -->
  <defs>
    <style>
      .st0 {
        fill: #fff;
      }

      .st1 {
        fill: none;
      }

      .st2 {
        fill: #8c6430;
      }

      .st3 {
        clip-path: url(#clippath-1);
      }

      .st4 {
        fill: #0f140e;
      }

      .st5 {
        clip-path: url(#clippath-3);
      }

      .st6 {
        fill: #0f1610;
      }

      .st7 {
        fill: #101610;
      }

      .st8 {
        clip-path: url(#clippath-2);
      }

      .st9 {
        clip-path: url(#clippath);
      }
    </style>
    <clipPath id="clippath">
      <rect class="st1" x="544.55" y="511.97" height="52.6"/>
    </clipPath>
    <clipPath id="clippath-1">
      <rect class="st1" x="544.55" y="511.97" height="52.6"/>
    </clipPath>
    <clipPath id="clippath-2">
      <rect class="st1" x="71.89" y="422.25" width="467.99" height="236.15"/>
    </clipPath>
    <clipPath id="clippath-3">
      <rect class="st1" x="539.88" y="422.25" width="467.99" height="236.15"/>
    </clipPath>
  </defs>
  <g>
    <g id="_x3C_Mirror_Repeat_x3E_">
      <g class="st9">
        <line class="st0" x1="544.55" y1="511.97" x2="544.55" y2="564.57"/>
      </g>
    </g>
    <g id="_x3C_Mirror_Repeat_x3E_1" data-name="_x3C_Mirror_Repeat_x3E_">
      <g class="st3">
        <line class="st0" x1="544.55" y1="511.97" x2="544.55" y2="564.57"/>
      </g>
    </g>
  </g>
  <g>
    <path class="st7" d="M277.5,549.2c-.14,22.44-11.87,42.42-37.05,43-9.28.22-18.8-2.09-25.02-9.07-6.19-6.95-9.47-16.45-9.48-25.86l-.05-47.04c0-9.33.24-18.55,1.58-27.49,2.73-18.18,18.42-29.33,37.21-28.62,25.9.98,33.28,20.3,33.14,42.13l-.34,52.95ZM249.85,569.76c3.02-3.49,4.77-8.69,4.85-12.88l.74-36.68c.26-12.92.5-25.46-1.13-38.14-.91-7.1-7.27-11.77-14.2-10.83-6.03.82-10.94,6.28-10.99,13.19l-.54,71.77c-.03,4.14.88,9.37,3,12.63,3.76,5.79,13.54,6.42,18.27.94Z"/>
    <path class="st7" d="M343.39,584.22l-18.07-51.53-7.99.22.42,35.51c.07,5.77,1.93,11.22,4.05,16.92l-31.18,1.88c2.43-6.64,4.71-12.94,4.69-20.13l-.28-96.86c-.01-5.14-1.98-9.25-4.56-13.79,15.54-.18,30.81-.25,46.15.73,12.48.79,21.68,8.27,24.93,19.5,4.13,17.89,1.92,38.55-15.72,49.52l16.75,44.22c1.7,4.5,4.41,8.28,7.21,12.52l-26.41,1.28ZM331.19,474.27c-4.6-.53-8.99-.56-13.88-.5l-.09,40.17c7.2,1.15,16.26.13,20.76-6.49,5.13-7.55,7.53-31.53-6.79-33.17Z"/>
    <path class="st7" d="M665.97,565.1c9.31-3.93,6.87-26.25,7.2-35.14-4.27-.39-7.97.2-11.75,1.97l-.07-19.46,33.84.17c-.19,14.48-.21,28.41-1.37,42.77-1.02,12.65-8.62,24.06-21.01,27.81-21.22,6.42-41.96-5.38-46.58-25.94-1.83-8.14-2.31-16.46-2.14-25.05l.86-42.37c.2-10.14,4.3-20.43,12.38-27.02,11.79-9.63,28.94-11.12,42.92-5.14,12.32,5.27,14.89,17.48,14.84,28.74-8.23,1.77-14.87,3.97-22.11,7.17l-.63-12.44c-.19-3.67-3.21-7.8-5.89-9.01-4.11-1.85-9.23-1.52-12.91,1.22-3.54,2.63-5.71,7.64-5.82,12.24l-1.11,49.6c-.15,6.92.44,13.41,1.75,20.16,1.44,7.43,9.36,13.22,17.61,9.73Z"/>
    <path class="st7" d="M759.14,585.6c3.6-12.17.55-18.11-1.7-29.91l-27.24-1.08c-2.51,10.02-3.78,19.22-3.38,29.27l-27.25-.62c2.67-6.33,5.3-12.02,6.84-18.71l22.1-95.74c1.05-4.55.22-7.95-2.29-11.84l33.45.05c.7,7.68,1.06,14.09,2.62,21.3l18.82,86.9c1.7,7.86,4.46,14.61,8.68,21.95l-30.67-1.56ZM754.1,536.91l-10.87-52.1-9.93,51.54,20.79.56Z"/>
    <path class="st6" d="M879.38,536.12l.13,40.66c11.26,1.01,25.54,4.68,35.9.35l-.44,25.15-61.36-8.33c2.6-6.85,3.64-14.05,3.62-21.78l-.16-98.81c0-5.83-1.57-10.5-3.91-15.89l62.2.6.24,22.03c-12.1-2.19-23.52-2.86-36.14-2.55v37.67s13.84.64,13.84.64c4.79.22,9.35-1.52,13.82-4.5l-.72,29.98c-9.02-4.52-17.52-5.48-27.01-5.22Z"/>
    <path class="st7" d="M506.42,576.53c-15.9,10.25-44.61,7.91-53.04-12.96-1.62-4.02-2.91-8.82-3.83-12.77,8.45-2.34,15.28-4.67,22.87-7.88.69,7.54.1,19.3,11.28,20.42,4.68.47,9.28-.38,11.66-4.57,3.24-5.69,3.11-13.84-.75-19.44-8.72-12.65-23.69-18.26-35.96-34.72-10.22-13.7-8.75-33.89,5.78-44.3,11.54-8.27,27.86-8.76,40.47-2.92,9.13,4.23,13.23,13.43,13.73,22.42-7.49,2.79-14.01,5.02-21.44,8.65-.16-2.59-.42-6.61-.92-10.07-.82-5.71-6.59-8.48-11.54-8.07-5.12.42-9.84,4.08-10.37,9.53-.85,8.75,3.91,16.09,10.79,21.49,7.74,6.07,15.19,11.98,22.36,18.49,17.58,15.95,17.64,44.61-1.1,56.7Z"/>
    <path class="st7" d="M423.19,526.4l-19.3-.67-.17,37.28,26.07-.49c3.84-.07,7.25-2.33,10.17-5.12l.09,24.07-62.46,1.68c1.68-3.62,3.66-8.14,3.65-12.39l-.16-101.47c0-4.54-1.56-8.1-3.86-12.5l62.7-.24.49,21.19c-4.66-1.49-9.1-3.17-13.81-3.23l-22.85-.3-.14,32.86,16.49-.2c3.71-.04,8.05-2.46,11.13-4.14l-.23,26.27c-2.37-.9-5.65-2.53-7.82-2.61Z"/>
    <path class="st7" d="M187.74,539.66c-9.21-2.64-18.6-2.56-28.36-1.71l-.1,42.09c-.01,5.97,2.22,11.92,4.36,17.66l-32.31,4.62c2.4-6.19,4.87-12.28,4.93-19.23l.97-106.75c.06-6.67-1.37-12.29-5.18-17.95l64.01-.59.09,21.41c-5.53-1.18-10.68-2.29-16.32-2.12l-19.93.59-.14,39.84c12.36-.56,18.79.9,28.17-6.48l-.18,28.61Z"/>
    <path class="st7" d="M828.48,591.19l-30.24-2.22c2.17-5.9,3.53-12.19,3.5-18.76l-.48-95.37c-7.45-1.06-14.89.58-20.73,6.3-1.5-8.18-1.57-15.68-1.26-24.03l66.56.16-.11,21.52c-7.53-2.86-14.53-4.08-23.01-4.18l.62,96.47c.45,6.93,2.1,12.6,5.13,20.11Z"/>
    <path class="st7" d="M576.75,581.6l-30.57-.48c2.01-5.1,3.89-10.96,3.89-16.91l-.04-90.26c-6.15-.36-12.89.59-17.66,4.31l-3.72,2.91-.99-24.58,67.79.02-.31,21.27c-7.64-2.93-15.3-4.2-23.48-4.02l.37,84.35c.04,8.16,1.35,15.59,4.74,23.4Z"/>
    <path class="st2" d="M213,586.2c7.07,4.53,13.16,7.59,21.34,8.53,17.2,1.97,33.7-5.37,41.03-20.92,2.48-5.25,4.8-11.74,5.1-17.73,1.03-21.17,1.01-41.6.54-62.85-.15-6.86-2.03-13.16-2.86-20.3,4.73,6,6.87,13.31,7.15,21.01.79,21.71,1.01,43.06-.02,64.78s-17.37,43.09-42.75,42.2c-11.48-.23-23.45-4.03-29.53-14.73Z"/>
    <path class="st2" d="M552.34,589.77c-2.04-1.19-4.53-3.2-6.65-5.2l35.53-.05c-3.63-7.33-5.77-14.48-5.83-22.36l-.64-85.28c8.43-.59,15.28,1.71,22.72,4.13l1.52-19.62c1.71.1,3.72,2.76,3.62,4.67l-1.03,19.97c-7.41-2.69-13.5-4.26-21.65-4.42l.1,88.18c0,7.38,3.79,13.6,6.91,20.72l-34.6-.76Z"/>
    <path class="st2" d="M804.43,597.71c-2.17-1.23-4.83-3.62-6.76-5.74l35.47,2.74c-4.49-8.24-6.48-16.24-6.56-25.53l-.69-91.25c7.94-.74,14.74,1.64,22.38,4.22l1.09-20.94c2.43,2.26,4.03,4.65,3.94,6.78l-.84,19.55c-7.5-2.99-13.43-4.63-21.48-4.95l.19,90.18c.02,10.08,2.66,17.95,7.32,28.11l-34.07-3.16Z"/>
    <path class="st2" d="M134.85,611.31l-3.08-6.01,35.75-5.14c-1.87-5.35-4.61-10.69-4.64-15.98l-.2-43.17c10.12-1.61,18.54-1.53,28.12,3.01l.71-30.95,4.45,5.87-.3,29.29c-9.58-3.64-18.87-4.13-27.95-2.58l-.08,38.61c-.02,7.57,2.04,13.82,5.68,21.5l-38.45,5.55Z"/>
    <path class="st2" d="M693.7,581.49c-13.5,17.84-46.06,15.13-59.3-2.52,12.15,7.12,24.29,11.01,37.62,7.64,10.22-2.58,18.26-9.1,21.77-18.74,1.99-5.46,3.67-11.39,3.84-17.22l1.01-34.4c2.39.38,4.5,2.53,4.46,4.86l-.69,35.12c-.18,9.12-3.18,17.97-8.7,25.27Z"/>
    <path class="st2" d="M796.66,595.27c-9.7-.92-34.34,1.87-38.85-6.59l34.55,1.1-5.61-15.21-19.73-88c-2.1-9.35-3.15-17.88-4.23-27.62,4.77,2.82,3.81,6.72,4.68,10.85l20.03,94.44c2.28,10.73,4.52,19.52,9.15,31.03Z"/>
    <path class="st4" d="M596.13,633.96c-6.29,2.52-13.06,1.92-20.44,1.42l.07-27.2c11.4-.51,27.25-1.03,28.98,11.59.79,5.8-2.08,11.58-8.61,14.19ZM593.65,628.27c4.86-2.45,5.1-9.26,1.53-12.22-3.03-2.52-8.85-2.96-12.13-1.41l.24,15.14c3.75-.01,7.37,0,10.36-1.51Z"/>
    <path class="st4" d="M262.22,635.4c-13.48,3.5-8.18-9.14-19.18-6.78l-.49,7.04-6.96-.06-.03-27.57,16.4.19c5.22.06,8.99,3.9,9.62,7.52.89,5.09-1.08,8.83-5.77,11.47l6.4,8.19ZM252.71,621.43c2.77-1.67,1.72-5.34.08-7.24l-9.77-.19-.05,8.39c3,.4,7.01.69,9.74-.96Z"/>
    <path class="st4" d="M563.44,633.76c-.64,4.94-7.53.55-9.15-1.66-2.88-3.9-6.34-7.78-9.99-11.69l-.66,14.73c-1.84.39-5.04.51-6.93.22l-.19-26.94c1.97-.15,6.18-.29,7.31.96l12.82,14.3.75-14.42c.13-1.62,6.35-1.59,6.52-.01.3,7.6.56,16.38-.48,24.51Z"/>
    <path class="st4" d="M692.25,635.38c-13.58,3.17-8.25-9.52-18.6-7l-.74,7c-1.65.52-5.69.4-6.93-.95l.06-26.21,16.85.12c4.83.03,8.68,3.86,9.34,7.42.88,4.76-1.22,8.39-6.06,11.4l6.09,8.21ZM682.82,621.74c1.24-.37,2.58-2.97,2.46-3.97-.56-4.74-7.33-4.03-11.85-3.95l.08,8.59c2.97.14,6.55.14,9.3-.67Z"/>
    <path class="st4" d="M365.99,635.46c-13.06,3.69-9-10.72-19.06-6.43l-.48,6.48-6.68-.17-.2-26.97,15.93-.06c4.7-.02,9.2,3.14,10.07,6.81,1.15,4.8-.53,9.06-5.88,12.05l6.3,8.31ZM354.35,622.52c1.65-.01,3.97-2.57,4.14-3.85.15-1.11-1.07-3.78-2.2-4.03-2.49-.55-6.2-.67-9.25-.7l-.05,8.65,7.35-.06Z"/>
    <path class="st4" d="M397.71,624.8l-13.02.35.14,4.76,14.77.22c.88.94,1.02,4.12.62,5.74l-23.4-.28.21-27.44,21.33-.02c1.51,0,1.92,4.95.71,5.43l-13.23.41c-1.33.05-1.72,4.42-.75,5.07l12.39.53.24,5.22Z"/>
    <path class="st4" d="M294.28,624.62l-13.41.52-.25,4.7,15.7.35v5.6s-23.48.02-23.48.02l.23-27.7,22.82.08.04,5.59-14.94.31c-.21.82-.44,3.78-.44,5.09l13.26.31.46,5.12Z"/>
    <path class="st4" d="M518.22,631.16l-14.02-.17c-1.79,4.58-4.82,5.64-9.82,4.34l13.2-26.65c1.71-.99,6.87-1.05,7.79.8l12.88,26.01-6.54.21c-1.4.05-2.26-2.64-3.49-4.55ZM515.57,625.11l-4.36-9.09-4.36,8.93,8.72.16Z"/>
    <path class="st4" d="M810.91,620.98c3.47,1.3,5.88,4.35,5.54,7.68-.32,3.11-2.9,6.15-6.48,7-6.78,1.61-13.05.45-19.47-3.16.92-1.37,2.7-3.75,3.54-4.69,5.57,1.63,10.28,5.25,15.56-.08l-11.85-4.42c-3.44-1.28-5.95-4.22-5.86-7.49.09-3.22,2.59-6.41,6.13-7.49,6.16-1.89,12.29-.88,17.42,2.28l-2.36,3.71c-1.34,2.1-11.32-4.69-14.08,2.2l11.92,4.48Z"/>
    <path class="st4" d="M431.04,632.15c-2.6-1.81-10.44-1.85-13.25-.29-3.05,2.02-4.89,5.84-10.21,3.41l13.43-26.67c1.68-.8,5.26-.71,7.23.17l12.63,26.47c-5.03,1.99-7.01-.6-9.82-3.1ZM428.79,625.2l-4.66-9.3-4.22,9.42,8.88-.12Z"/>
    <path class="st4" d="M724.44,631.14l-14.29-.06c-1.62,4.69-5.65,5.5-9.96,4.13l13.51-26.79c2.12-.32,5.23-.19,7.24.29l12.68,26.63c-4.51.98-8,1.26-9.17-4.19ZM721.59,625.21l-4.66-9.29-4.36,9.23,9.02.06Z"/>
    <path class="st2" d="M466,582.63c14.43,2.99,27.95,4.75,40.44-2.24,10.75-6.02,17.24-17.08,17.03-29.13l-.2-10.83c5.22,11.6,6.37,26.49-2.81,37.56-12.63,15.24-38.57,18.47-54.46,4.64Z"/>
    <polygon class="st2" points="860.34 602.95 854.45 597.28 917.81 605.53 918.62 578.37 923.09 583.46 922.65 612.19 860.34 602.95"/>
    <polygon class="st2" points="384.39 591.35 378.21 586.04 442.79 584.41 443.29 561.18 447.95 565.23 447.87 590.56 384.39 591.35"/>
    <path class="st2" d="M887.79,570.93c-.01,1-1.53,3.33-2.39,3.13s-2.4-1.99-2.41-3.05l-.3-31.7c9.72-.99,17.78,2.05,26.68,6.55l.61-32.53,4.92,4.71v32.72c-8.98-3.55-17.05-5.86-26.73-6.28l-.37,26.46Z"/>
    <path class="st2" d="M654.89,559.42c-4.42-2.71-4.7-9.06-4.67-14.27l.28-52.65c.04-7.07,1.51-17.94,9.91-18.62,4.18-.34,8.04.94,8.3,5.71-3.21.12-7.23.35-9.34,1.94-1.93,1.45-3.82,5.58-3.84,8.44l-.64,69.45Z"/>
    <path class="st2" d="M734.54,592.4l-28.26-.89-8.04-5.37,32.08.62c-1.54-9.9,0-19.16,2.4-29.33l19.53.93c.98.05,2.9,1.17,3.51,1.72s.01,3.19-1.07,3.18l-17.43-.17c-1.86,9.87-2.61,17.95-2.73,29.31Z"/>
    <path class="st2" d="M330.57,593.17c-11.48,1.05-23.54,1.81-34.63,1.58-1.64-.03-4.58-3.15-5.36-4.34l35.08-2.48c-3.28-7.07-5.03-13.5-4.95-20.67l.36-32.29c5.59,3.48,4.31,8.75,4.38,13.26l.44,28.82c.08,5.27,2.67,9.85,4.68,16.11Z"/>
    <path class="st2" d="M346.86,592.86c-1.76.07-3.85-4.3-2.87-5.6l28.01-1.29c-.2-4.32-1.56-7.53-3.67-11.19-3.24-5.61-5.06-11.76-7.4-17.78l-11.36-29.18c11.91-8.86,17.2-22.24,16.96-36.61l-.23-14.15c7.79,17.24,5.8,43.94-11.76,55.89l6.5,18.17,8.17,20.95c2.63,6.76,5.17,12.41,8.57,19.58l-30.91,1.21Z"/>
    <path class="st2" d="M412.06,558.78c-.01,1.1-5.04,1.41-4.95.48l-.38-29.55c8.87-2.22,18.13-.41,27.63,4.2l.31-29.79c1.4.67,4.72,2.99,4.72,4.23l.09,29.5c-9.53-3.51-17.7-4.76-27.2-3.63l-.24,24.55Z"/>
    <path class="st2" d="M887.93,512.47l-2.62-4.38c-.53,2.34-.42,3.4-2.24,4.63l-.23-32.12c16.72.14,21.09-.85,35.57,4.15l.73-23.78c5.78,3.5,3.8,22.41,4.13,29.32-14.65-5.97-19.61-4.15-35.06-4.4l-.27,26.57Z"/>
    <path class="st2" d="M167.96,513.05c.03.92-4.58,1.39-4.58.32l-.2-32.46c13.12-.98,22.4-2.73,35.47,2.61l.87-22.59,4.31,4.83-.65,22.1c-5.51-2.19-10.24-3.45-16.02-3.12l-18.77,1.05-.43,27.26Z"/>
    <polygon class="st4" points="647.33 635.49 640.11 635.43 640.18 614.15 631.41 613.61 631.27 608.1 656.04 608.1 656.17 613.73 647.39 614.15 647.33 635.49"/>
    <path class="st4" d="M320.96,635.73l-7.23-.42-.12-21.15-8.57-.45c-.56-.89-.47-4.42.06-5.7l24.5.08.21,5.7-8.84.36-.03,21.57Z"/>
    <path class="st4" d="M462.37,635.03c-1.9.4-5.35.49-7.01.27l-.18-21.2-8.58-.47-.03-5.52h24.65s-.41,5.53-.41,5.53l-8.06.66-.4,20.74Z"/>
    <path class="st2" d="M412,500.94c0,1.01-.82,2.83-1.54,2.94-.95.15-3.5-.65-3.52-1.67l-.46-24.88c15.22-.62,21.8-1,36.16,3.44l.85-20.63c.73.62,3.7,3.81,3.69,5.27l-.11,19.92c-5.6-1.7-10.1-3.67-15.05-3.6l-20.14.3.11,18.92Z"/>
    <polygon class="st4" points="783.7 630 784.03 635.85 762.09 635.68 762.23 608.23 769.46 608.21 769.69 629.67 783.7 630"/>
    <polygon class="st4" points="750.28 635.66 742.84 635.6 742.83 608.23 750.21 608.26 750.28 635.66"/>
    <path class="st2" d="M501.99,496.6c-2.29.84-4.45-4.71-2.53-5.74,7.27-3.91,15.11-6.53,22.77-8.88l-1.38-11.04c3.87,4.84,4.97,10.45,6.33,16.38l-25.19,9.28Z"/>
    <path class="st2" d="M679.12,501.05c-.96-.73-2.49-2.24-4.42-4.26,7.53-4.45,14.86-6.69,23.41-8.08l-.48-14.69c3.91,6.38,4.46,13.74,3.92,20.69-8.07,1.64-14.7,3.51-22.44,6.34Z"/>
    <polygon class="st4" points="897 629.23 830.36 629.22 832.32 627.22 895.38 627.22 897 629.23"/>
    <path class="st4" d="M219.01,628.26c-21.87,1.6-43.24,1.6-66.07.01,21.63-1.69,43.26-1.71,66.07-.01Z"/>
    <path class="st2" d="M482.02,485.88l-.99,5.81c-4.9-4.22-5.13-10.21-1.94-15.4,1.27-2.06,5.32-3.55,7.54-3.36,3.08.27,6.47,3.17,6.06,5.85-2.57.22-5.51.39-7.36,1.2-1.54.67-2.97,3.95-3.3,5.89Z"/>
    <path class="st2" d="M788.08,486.83c-1.05.55-3.18-1.21-3.59-2.48-1.51-4.66,8.51-7.23,13.3-7.27.14,2.21,0,4.64-1.11,5.22l-8.6,4.53Z"/>
    <path class="st2" d="M535.83,487.09c-.24.05-2.17-1.65-2.63-2.54-1.77-3.45,6.22-8.87,13.02-7.32,1.39.32.06,4.54-1.33,5.07-3.04,1.16-5.24,2.41-9.06,4.8Z"/>
    <path class="st2" d="M661.76,534.34l8.35-2.06c.66,2.32-.42,5.14-2.12,6.14-2.35,1.39-4.06.26-6.23-4.09Z"/>
    <path class="st2" d="M236.79,555.67l.43,13.94c-3.57-2.2-5.34-6.46-5.34-10.68v-64.7c0-7.79-.06-18.62,8.32-20.04,4.5-.76,9.17.39,10.39,5.59-3.22.05-6.8,0-9.05,1.17-2.05,1.06-4.37,5.38-4.39,8.2l-.36,66.51Z"/>
    <path class="st2" d="M325.52,481.27l.09,27.34c0,1.59-2.72,2.77-4.72,2.12l-.41-33.86c5.51-.58,16.01-.78,16.1,4.82l-11.06-.42Z"/>
    <path class="st2" d="M743.12,532.64c-1.01.82-4.68.86-6.3.41l6.07-29.09c5.87.95.87,23.3.24,28.68Z"/>
    <g>
      <g id="_x3C_Mirror_Repeat_x3E_2" data-name="_x3C_Mirror_Repeat_x3E_">
        <g class="st8">
          <path class="st7" d="M560.11,433.05l-436.97,1.03,5.82-4.87c-.73,4.48-1.57,8.77-2.54,13.16-5.48,23.76-14.52,55.98-30.08,75.05-3.38,3.93-7.34,7.45-12.41,9.45,0,0,1.2-8.95,1.2-8.95,13.45,11.21,22.84,27.33,25.81,44.59,2.45,19.06,5.85,38.03,9.59,56.92,2.28,11.61,4.67,23.23,7.15,34.79l-3.29-2.62,127.66,1.6,127.66,1.78c-63.69.87-191.65,2.66-255.31,3.38,0,0-2.65.03-2.65.03l-.64-2.66c-6.83-29.01-13.75-57.94-18.41-87.43-.76-5.49-2.14-10.92-4.29-16.04-3.97-9.52-10.2-18.18-18.01-24.93-1.12-.94-7.26-5.67-8.49-6.63,0,0,8.26-3.47,8.26-3.47,6.42-2.87,11.05-10.44,14.53-16.81,7.77-14.94,12.6-31.79,16.83-48.16,2.46-9.96,4.92-20.01,6.71-30.03,0,0,4.92.01,4.92.01l436.97,1.03v9.76h0Z"/>
        </g>
      </g>
      <g id="_x3C_Mirror_Repeat_x3E_3" data-name="_x3C_Mirror_Repeat_x3E_">
        <g class="st5">
          <path class="st7" d="M519.65,423.29s436.97-1.03,436.97-1.03c0,0,4.92-.01,4.92-.01l.89,4.88c4.89,21.8,16.8,80.08,37.17,90.12,0,0,8.26,3.47,8.26,3.47l-7.06,5.48c-12.25,9.89-20.88,24.42-23.39,39.98-4.82,31.1-12.14,61.63-19.39,92.21,0,0-2.65-.03-2.65-.03,0,0-127.66-1.6-127.66-1.6,0,0-127.66-1.78-127.66-1.78l127.66-1.78,127.66-1.6s-3.29,2.62-3.29,2.62c6.2-29.61,12.52-59.37,16.38-89.37,2.2-16.53,10.48-32.01,22.39-43.61,1.22-1.17,2.42-2.26,3.78-3.34,0,0,1.2,8.95,1.2,8.95-25.41-9.88-40.71-72.36-45.03-97.66,0,0,5.82,4.87,5.82,4.87,0,0-436.97-1.03-436.97-1.03,0,0,0-9.76,0-9.76h0Z"/>
        </g>
      </g>
    </g>
  </g>
</svg>