<?xml version="1.0" encoding="UTF-8"?>
<svg id="Layer_1" xmlns="http://www.w3.org/2000/svg" version="1.1" xmlns:xlink="http://www.w3.org/1999/xlink" viewBox="0 0 1080 1080">
  <!-- Generator: Adobe Illustrator 30.2.1, SVG Export Plug-In . SVG Version: 2.1.1 Build 1)  -->
  <defs>
    <style>
      .st0, .st1 {
        fill: #111c11;
      }

      .st2 {
        clip-path: url(#clippath-4);
      }

      .st3 {
        fill: #fff;
      }

      .st4, .st5, .st6 {
        fill: none;
      }

      .st7 {
        fill: #8c6430;
      }

      .st5 {
        stroke: #0e150f;
        stroke-width: 5px;
      }

      .st5, .st6, .st1 {
        stroke-miterlimit: 10;
      }

      .st8 {
        clip-path: url(#clippath-1);
      }

      .st9 {
        clip-path: url(#clippath-5);
      }

      .st10 {
        fill: #0f140e;
      }

      .st11 {
        clip-path: url(#clippath-3);
      }

      .st12 {
        fill: #0f1610;
      }

      .st13 {
        fill: #c99a5f;
      }

      .st6 {
        stroke: #0b1510;
        stroke-width: 2px;
      }

      .st14 {
        fill: #101610;
      }

      .st15 {
        clip-path: url(#clippath-2);
      }

      .st16 {
        fill: #ac8448;
      }

      .st17 {
        fill: #0f1811;
      }

      .st18 {
        clip-path: url(#clippath);
      }

      .st19 {
        fill: #0b1510;
      }

      .st1 {
        stroke: #c99a5f;
        stroke-width: 6px;
      }
    </style>
    <clipPath id="clippath">
      <rect class="st4" x="544.67" y="540" height="52.6"/>
    </clipPath>
    <clipPath id="clippath-1">
      <rect class="st4" x="544.67" y="540" height="52.6"/>
    </clipPath>
    <clipPath id="clippath-2">
      <rect class="st4" x="71.91" y="450.29" width="468.09" height="236.53"/>
    </clipPath>
    <clipPath id="clippath-3">
      <rect class="st4" x="540" y="450.29" width="468.09" height="236.53"/>
    </clipPath>
    <clipPath id="clippath-4">
      <rect class="st4" x="224.19" y="666.43" width="314.44" height="229.34"/>
    </clipPath>
    <clipPath id="clippath-5">
      <rect class="st4" x="538.63" y="666.43" width="314.44" height="229.34"/>
    </clipPath>
  </defs>
  <g>
    <path class="st0" d="M929.97,685.24s-15.82,70.02-58.15,125.8c0,0-38.37,64.48-113.93,112.35,0,0-37.98,26.9-113.14,47.47,0,0-70.02,20.97-107.6,68.84,0,0-33.23-54.2-151.52-83.87,0,0-92.18-30.86-167.74-126.2,0,0-50.24-60.92-72.79-144.4l75.92-1.16h2.06s4.22,28.5,41.6,81.73c0,0,56.5,85.07,159.09,114.34,0,0,71.74,27.69,166.29,13.85,94.55-13.85,149.39-55.78,149.39-55.78,0,0,82.38-56.62,113.66-153.71l76.86.74Z"/>
    <path class="st13" d="M935.22,684.74c.27,1.33-.19,2.69-.49,3.93-2.02,7.88-4.44,15.63-6.98,23.35-7.96,23.65-18.07,46.81-30.33,68.55-1.04,2.04-5.54,9.14-6.8,11.4-1.82,2.64-5.59,8.58-7.31,11.1-1.39,1.95-6.32,8.63-7.85,10.75-2.01,3.3-7.51,11.29-10.99,15.88-28.74,38.22-64.58,71.25-105.02,96.77-27.62,17.42-58.32,29.47-89.28,39.39-7.06,2.2-17.62,5.25-24.91,7.18-8.07,2.46-16.15,5.53-24.03,8.83-31.33,13.44-61.73,31.59-83.6,58.23,0,0-.54.67-.54.67l-.49-.73c-8.54-11.78-20.03-21.29-31.63-29.96-25.11-18.1-53.91-31.17-83.16-41.02-3.52-1.1-12.08-3.88-15.65-5.01-.12-.04-21.2-5.7-21.3-5.73-3.86-1.33-7.5-2.8-11.17-4.34-56.02-24.12-105.6-62.27-145.58-108.13-19.47-22.19-35.89-46.86-50.11-72.67-2.85-4.86-5.6-10.7-8.26-15.64-7.84-15.89-16.37-31.6-22.57-48.25-2.62-6.29-4.46-13.28-6.31-19.82,0,0-.39-1.43-.39-1.43,0,0-.2-.72-.2-.72,0-.06-.1-.1.1-.22.22-.12.43-.25.9-.44l.61-.26c.2-.09.4-.17.7-.29,0,0,1.68-.64,1.68-.64,0,0,.03-.01.03-.01,0,0,0,0,0,0h0s.5-.13.5-.14c0,0-.11-.38-.11-.38,0,0,.41,0,.41,0,18.68-.41,50.06-.89,68.23-1.28,3.21.02,6.68-.28,9.75-.05,0,0,.47.41.48.41,1.05.19,1.23.51,1.26.88.57,2.54,1.31,5.03,2.12,7.51,7.85,22.86,20.02,44,33.31,64.12,38.42,57.12,98.12,102.27,164.43,121.32,15.16,5.37,31.21,9,47.03,11.91,26.66,4.62,53.86,6.61,80.9,5.41,72.05-3.68,154.96-28.72,208.7-78.3,24.09-21.71,45-46.97,61.47-74.9,6.73-11.65,13.79-23.22,19.26-35.54,2.31-4.86,3.87-10.11,6.04-15.02,1.2-2.45,1.54-5.16,4.93-6.92,26.95-.26,54.79.02,82.22.27h0ZM924.4,685.72c-23.41-.3-47.91-.51-71.18-1.18,1.62,3.4.2,5.85-.37,8.55-1.54,5.29-3.9,10.3-5.95,15.4-5.19,12.73-10.84,25.43-18.24,37.04-17.57,27.94-39.4,53.09-63.68,75.38-24.08,22.76-53.47,39.27-84.03,51.37-63.74,25.31-134.1,33.82-201.98,23.69-12.07-1.77-24.51-4.32-36.3-7.38-29.9-8.29-59.75-19.06-86.57-35.86-36.38-22.5-68.62-51.99-93.33-86.93-10.35-15-20.31-30.58-28.42-46.93-5.24-10.64-10.02-21.73-12.58-33.36-.11-.38-.09-.8.83-1.36,0,0,.47.41.47.41-1.62.15-3.25.08-4.87.12-9.7.08-24.51.32-34.11.41,0,0-38.99.47-38.99.47,0,0,.3-.4.29-.39.76-.22,2.33-.43,3.08-.54,0,0,.67-.09.67-.09.5-.07.75-.08,1-.09.23,0,.17.08.2.13.3,1,1.18,3.73,1.52,4.82,4.91,16.2,9.92,33.74,16.02,49.61,2.04,5.43,4.5,10.78,6.91,16.03,9.38,19.17,20.04,37.79,32.09,55.39,39.99,57.25,95.53,103.48,158.28,133.9,6.56,3.24,15,6.72,21.09,8.98,0,0,21.33,6,21.33,6l10.52,3.5c6.01,1.83,14.89,5.26,20.81,7.62,3.06,1.17,7.31,2.88,10.23,4.27,5.97,2.57,14.35,6.52,20,9.57,17.97,9.42,35.28,20.48,50.21,34.32,6.8,6.27,13.23,12.97,18.33,20.79,0,0-1.06-.05-1.03-.07,27-34.24,66.73-56.23,107.34-70.53,36.89-10.78,73.47-24.44,106.34-44.52,5.15-3.17,10.92-7.36,15.96-10.68,10.09-7.02,21.11-15.46,30.38-23.52,27.26-23.73,52.02-50.85,71.29-81.49,0,0,.21-.3.21-.3,0,0,4.95-6.99,4.95-6.99,0,0,2.47-3.49,2.47-3.49,2.6-4,4.59-7.23,6.92-10.84,0,0,4.31-7.42,4.31-7.42,12.78-22.34,22.91-46.36,30.88-70.82,2.47-7.83,4.83-15.7,6.73-23.68,0,0,.06-.23.06-.23-.07.27-.09.59-.08.93h0Z"/>
  </g>
  <path class="st1" d="M935.59,453.26c.4-5.47-1.74-12.37-1.74-12.37-31.65-99.03-69.23-160.92-161.8-228.4-58.34-42.53-129.62-65.04-200.97-70.28-21.76-1.6-31.25-21.96-31.25-21.96-7.12,19.17-37.98,25.95-37.98,25.95-113.93,7.19-173.27,54.3-173.27,54.3-141.63,82.26-181.19,240.38-181.19,240.38,0,0-2.62,10.29-1.82,12.37l78.73,1.7s43.15-160.86,182.26-221.19c0,0,125.44-55.3,252.48-3.35s177.7,165.05,177.7,165.05c0,0,14.74,32.4,22.25,59.49v.98l76.62-2.67Z"/>
  <g>
    <g id="_x3C_Mirror_Repeat_x3E_">
      <g class="st18">
        <line class="st3" x1="544.67" y1="540" x2="544.67" y2="592.6"/>
      </g>
    </g>
    <g id="_x3C_Mirror_Repeat_x3E_1" data-name="_x3C_Mirror_Repeat_x3E_">
      <g class="st8">
        <line class="st3" x1="544.67" y1="540" x2="544.67" y2="592.6"/>
      </g>
    </g>
  </g>
  <path class="st16" d="M277.79,451.12l1.58-25.58s9.2.49,10.78-4.15c0,0-3.07-.59-5.14-4.25,0,0,7.71-.2,10.98-3.07,0,0-2.67,1.58-5.44-2.27,0,0,6.33-2.77,6.73-6.13,0,0-6.43,1.29-8.11-.99,0,0,10.29-5.74,10.98-11.77,0,0-7.52,1.38-8.9-.99,0,0,9.89-5.54,11.37-9.69,0,0-5.44,2.08-7.42-.59,0,0,7.32-4.65,8.21-8.51,0,0-5.44.59-6.82-1.98,0,0,6.63-6.23,7.71-9.79,0,0-3.96,3.16-5.44.79,0,0,6.53-4.85,7.81-10.29,0,0-3.36,1.98-3.96.99,0,0,7.71-8.6,8.7-20.67,0,0,4.65,15.53,8.01,16.91,0,0-2.57.49-3.76-.49,0,0,4.75,8.8,8.9,10.19,0,0-2.77,1.29-5.74-.4,0,0,3.56,10.68,8.11,14.14,0,0-4.55.3-6.53-1.19,0,0,4.95,9.2,9.4,12.66,0,0-4.85.79-7.52-.49,0,0,6.33,8.57,9,8.14,0,0-4.95,2.44-8.31.76,0,0,6.43,6.82,11.77,6.43,0,0-8.41,2.08-11.87.3,0,0,6.63,10.19,16.52,13.95l49.95-5.34,5.93-11.47.99-4.62s11.27-10.02,11.27-13.58c0,0-8.11-4.15-9.69-6.13,0,0,5.74-1.38,6.92-3.96,0,0-5.14,1.38-6.33-.4,0,0,6.92-2.57,7.91-4.95,0,0-4.15.4-5.14-.59,0,0,4.95-2.97,6.33-5.34,0,0-3.16.79-4.55.2,0,0,7.71-3.76,7.52-6.73,0,0-5.14,1.98-6.53.4,0,0,8.11-7.91,8.51-11.47,0,0-2.97,1.38-3.56.59,0,0,6.53-10.48,6.53-18.4,0,0,4.35,15.43,7.91,17.41,0,0-2.18,1.19-3.56.4,0,0,5.93,12.46,8.7,12.66,0,0-6.92.99-7.91-.59,0,0,7.25,9.63,9.63,10.55,0,0-4.48.92-6.33-.33,0,0,7.45,12.59,11.21,14.04,0,0-6.99.4-9.36-1.19,0,0,6.13,8.11,9.69,8.97,0,0-4.42,1.19-7.32.26,0,0,6.53,6.4,11.6,7.38,0,0-2.31,1.52-5.54.4,0,0,.53,4.68,7.52,5.14l11.21,2.9,1.19,16.22,22.68,18.73,30.46-7.52,25.32-1.19h7.53v25.32l-262.3.26Z"/>
  <path class="st16" d="M805.97,451.12l-1.58-25.58s-9.2.49-10.78-4.15c0,0,3.07-.59,5.14-4.25,0,0-7.71-.2-10.98-3.07,0,0,2.67,1.58,5.44-2.27,0,0-6.33-2.77-6.73-6.13,0,0,6.43,1.29,8.11-.99,0,0-10.29-5.74-10.98-11.77,0,0,7.52,1.38,8.9-.99,0,0-9.89-5.54-11.37-9.69,0,0,5.44,2.08,7.42-.59,0,0-7.32-4.65-8.21-8.51,0,0,5.44.59,6.82-1.98,0,0-6.63-6.23-7.71-9.79,0,0,3.96,3.16,5.44.79,0,0-6.53-4.85-7.81-10.29,0,0,3.36,1.98,3.96.99,0,0-7.71-8.6-8.7-20.67,0,0-4.65,15.53-8.01,16.91,0,0,2.57.49,3.76-.49,0,0-4.75,8.8-8.9,10.19,0,0,2.77,1.29,5.74-.4,0,0-3.56,10.68-8.11,14.14,0,0,4.55.3,6.53-1.19,0,0-4.95,9.2-9.4,12.66,0,0,4.85.79,7.52-.49,0,0-6.33,8.57-9,8.14,0,0,4.95,2.44,8.31.76,0,0-6.43,6.82-11.77,6.43,0,0,8.41,2.08,11.87.3,0,0-6.63,10.19-16.52,13.95l-49.95-5.34-5.93-11.47-.99-4.62s-11.27-10.02-11.27-13.58c0,0,8.11-4.15,9.69-6.13,0,0-5.74-1.38-6.92-3.96,0,0,5.14,1.38,6.33-.4,0,0-6.92-2.57-7.91-4.95,0,0,4.15.4,5.14-.59,0,0-4.95-2.97-6.33-5.34,0,0,3.16.79,4.55.2,0,0-7.71-3.76-7.52-6.73,0,0,5.14,1.98,6.53.4,0,0-8.11-7.91-8.51-11.47,0,0,2.97,1.38,3.56.59,0,0-6.53-10.48-6.53-18.4,0,0-4.35,15.43-7.91,17.41,0,0,2.18,1.19,3.56.4,0,0-5.93,12.46-8.7,12.66,0,0,6.92.99,7.91-.59,0,0-7.25,9.63-9.63,10.55,0,0,4.48.92,6.33-.33,0,0-7.45,12.59-11.21,14.04,0,0,6.99.4,9.36-1.19,0,0-6.13,8.11-9.69,8.97,0,0,4.42,1.19,7.32.26,0,0-6.53,6.4-11.6,7.38,0,0,2.31,1.52,5.54.4,0,0-.53,4.68-7.52,5.14l-11.21,2.9-1.19,16.22-22.68,18.73-30.46-7.52-25.32-1.19h-7.53s0,25.32,0,25.32l262.3.26Z"/>
  <g>
    <path class="st14" d="M277.62,577.23c-.14,22.44-11.87,42.42-37.05,43-9.28.22-18.8-2.09-25.02-9.07-6.19-6.95-9.47-16.45-9.48-25.86l-.05-47.04c0-9.33.24-18.55,1.58-27.49,2.73-18.18,18.42-29.33,37.21-28.62,25.9.98,33.28,20.3,33.14,42.13l-.34,52.95ZM249.96,597.8c3.02-3.49,4.77-8.69,4.85-12.88l.74-36.68c.26-12.92.5-25.46-1.13-38.14-.91-7.1-7.27-11.77-14.2-10.83-6.03.82-10.94,6.28-10.99,13.19l-.54,71.77c-.03,4.14.88,9.37,3,12.63,3.76,5.79,13.54,6.42,18.27.94Z"/>
    <path class="st14" d="M343.51,612.26l-18.07-51.53-7.99.22.42,35.51c.07,5.77,1.93,11.22,4.05,16.92l-31.18,1.88c2.43-6.64,4.71-12.94,4.69-20.13l-.28-96.86c-.01-5.14-1.98-9.25-4.56-13.79,15.54-.18,30.81-.25,46.15.73,12.48.79,21.68,8.27,24.93,19.5,4.13,17.89,1.92,38.55-15.72,49.52l16.75,44.22c1.7,4.5,4.41,8.28,7.21,12.52l-26.41,1.28ZM331.31,502.31c-4.6-.53-8.99-.56-13.88-.5l-.09,40.17c7.2,1.15,16.26.13,20.76-6.49,5.13-7.55,7.53-31.53-6.79-33.17Z"/>
    <path class="st14" d="M666.08,593.13c9.31-3.93,6.87-26.25,7.2-35.14-4.27-.39-7.97.2-11.75,1.97l-.07-19.46,33.84.17c-.19,14.48-.21,28.41-1.37,42.77-1.02,12.65-8.62,24.06-21.01,27.81-21.22,6.42-41.96-5.38-46.58-25.94-1.83-8.14-2.31-16.46-2.14-25.05l.86-42.37c.2-10.14,4.3-20.43,12.38-27.02,11.79-9.63,28.94-11.12,42.92-5.14,12.32,5.27,14.89,17.48,14.84,28.74-8.23,1.77-14.87,3.97-22.11,7.17l-.63-12.44c-.19-3.67-3.21-7.8-5.89-9.01-4.11-1.85-9.23-1.52-12.91,1.22-3.54,2.63-5.71,7.64-5.82,12.24l-1.11,49.6c-.15,6.92.44,13.41,1.75,20.16,1.44,7.43,9.36,13.22,17.61,9.73Z"/>
    <path class="st14" d="M759.26,613.63c3.6-12.17.55-18.11-1.7-29.91l-27.24-1.08c-2.51,10.02-3.78,19.22-3.38,29.27l-27.25-.62c2.67-6.33,5.3-12.02,6.84-18.71l22.1-95.74c1.05-4.55.22-7.95-2.29-11.84l33.45.05c.7,7.68,1.06,14.09,2.62,21.3l18.82,86.9c1.7,7.86,4.46,14.61,8.68,21.95l-30.67-1.56ZM754.21,564.94l-10.87-52.1-9.93,51.54,20.79.56Z"/>
    <path class="st12" d="M879.5,564.16l.13,40.66c11.26,1.01,25.54,4.68,35.9.35l-.44,25.15-61.36-8.33c2.6-6.85,3.64-14.05,3.62-21.78l-.16-98.81c0-5.83-1.57-10.5-3.91-15.89l62.2.6.24,22.03c-12.1-2.19-23.52-2.86-36.14-2.55v37.67s13.84.64,13.84.64c4.79.22,9.35-1.52,13.82-4.5l-.72,29.98c-9.02-4.52-17.52-5.48-27.01-5.22Z"/>
    <path class="st14" d="M506.53,604.56c-15.9,10.25-44.61,7.91-53.04-12.96-1.62-4.02-2.91-8.82-3.83-12.77,8.45-2.34,15.28-4.67,22.87-7.88.69,7.54.1,19.3,11.28,20.42,4.68.47,9.28-.38,11.66-4.57,3.24-5.69,3.11-13.84-.75-19.44-8.72-12.65-23.69-18.26-35.96-34.72-10.22-13.7-8.75-33.89,5.78-44.3,11.54-8.27,27.86-8.76,40.47-2.92,9.13,4.23,13.23,13.43,13.73,22.42-7.49,2.79-14.01,5.02-21.44,8.65-.16-2.59-.42-6.61-.92-10.07-.82-5.71-6.59-8.48-11.54-8.07s-9.84,4.08-10.37,9.53c-.85,8.75,3.91,16.09,10.79,21.49,7.74,6.07,15.19,11.98,22.36,18.49,17.58,15.95,17.64,44.61-1.1,56.7Z"/>
    <path class="st14" d="M423.31,554.43l-19.3-.67-.17,37.28,26.07-.49c3.84-.07,7.25-2.33,10.17-5.12l.09,24.07-62.46,1.68c1.68-3.62,3.66-8.14,3.65-12.39l-.16-101.47c0-4.54-1.56-8.1-3.86-12.5l62.7-.24.49,21.19c-4.66-1.49-9.1-3.17-13.81-3.23l-22.85-.3-.14,32.86,16.49-.2c3.71-.04,8.05-2.46,11.13-4.14l-.23,26.27c-2.37-.9-5.65-2.53-7.82-2.61Z"/>
    <path class="st14" d="M187.86,567.69c-9.21-2.64-18.6-2.56-28.36-1.71l-.1,42.09c-.01,5.97,2.22,11.92,4.36,17.66l-32.31,4.62c2.4-6.19,4.87-12.28,4.93-19.23l.97-106.75c.06-6.67-1.37-12.29-5.18-17.95l64.01-.59.09,21.41c-5.53-1.18-10.68-2.29-16.32-2.12l-19.93.59-.14,39.84c12.36-.56,18.79.9,28.17-6.48l-.18,28.61Z"/>
    <path class="st14" d="M828.59,619.23l-30.24-2.22c2.17-5.9,3.53-12.19,3.5-18.76l-.48-95.37c-7.45-1.06-14.89.58-20.73,6.3-1.5-8.18-1.57-15.68-1.26-24.03l66.56.16-.11,21.52c-7.53-2.86-14.53-4.08-23.01-4.18l.62,96.47c.45,6.93,2.1,12.6,5.13,20.11Z"/>
    <path class="st14" d="M576.86,609.64l-30.57-.48c2.01-5.1,3.89-10.96,3.89-16.91l-.04-90.26c-6.15-.36-12.89.59-17.66,4.31l-3.72,2.91-.99-24.58,67.79.02-.31,21.27c-7.64-2.93-15.3-4.2-23.48-4.02l.37,84.35c.04,8.16,1.35,15.59,4.74,23.4Z"/>
    <path class="st7" d="M213.12,614.23c7.07,4.53,13.16,7.59,21.34,8.53,17.2,1.97,33.7-5.37,41.03-20.92,2.48-5.25,4.8-11.74,5.1-17.73,1.03-21.17,1.01-41.6.54-62.85-.15-6.86-2.03-13.16-2.86-20.3,4.73,6,6.87,13.31,7.15,21.01.79,21.71,1.01,43.06-.02,64.78s-17.37,43.09-42.75,42.2c-11.48-.23-23.45-4.03-29.53-14.73Z"/>
    <path class="st7" d="M552.45,617.8c-2.04-1.19-4.53-3.2-6.65-5.2l35.53-.05c-3.63-7.33-5.77-14.48-5.83-22.36l-.64-85.28c8.43-.59,15.28,1.71,22.72,4.13l1.52-19.62c1.71.1,3.72,2.76,3.62,4.67l-1.03,19.97c-7.41-2.69-13.5-4.26-21.65-4.42l.1,88.18c0,7.38,3.79,13.6,6.91,20.72l-34.6-.76Z"/>
    <path class="st7" d="M804.55,625.74c-2.17-1.23-4.83-3.62-6.76-5.74l35.47,2.74c-4.49-8.24-6.48-16.24-6.56-25.53l-.69-91.25c7.94-.74,14.74,1.64,22.38,4.22l1.09-20.94c2.43,2.26,4.03,4.65,3.94,6.78l-.84,19.55c-7.5-2.99-13.43-4.63-21.48-4.95l.19,90.18c.02,10.08,2.66,17.95,7.32,28.11l-34.07-3.16Z"/>
    <path class="st7" d="M134.96,639.34l-3.08-6.01,35.75-5.14c-1.87-5.35-4.61-10.69-4.64-15.98l-.2-43.17c10.12-1.61,18.54-1.53,28.12,3.01l.71-30.95,4.45,5.87-.3,29.29c-9.58-3.64-18.87-4.13-27.95-2.58l-.08,38.61c-.02,7.57,2.04,13.82,5.68,21.5l-38.45,5.55Z"/>
    <path class="st7" d="M693.82,609.52c-13.5,17.84-46.06,15.13-59.3-2.52,12.15,7.12,24.29,11.01,37.62,7.64,10.22-2.58,18.26-9.1,21.77-18.74,1.99-5.46,3.67-11.39,3.84-17.22l1.01-34.4c2.39.38,4.5,2.53,4.46,4.86l-.69,35.12c-.18,9.12-3.18,17.97-8.7,25.27Z"/>
    <path class="st7" d="M796.77,623.31c-9.7-.92-34.34,1.87-38.85-6.59l34.55,1.1-5.61-15.21-19.73-88c-2.1-9.35-3.15-17.88-4.23-27.62,4.77,2.82,3.81,6.72,4.68,10.85l20.03,94.44c2.28,10.73,4.52,19.52,9.15,31.03Z"/>
    <path class="st10" d="M596.25,661.99c-6.29,2.52-13.06,1.92-20.44,1.42l.07-27.2c11.4-.51,27.25-1.03,28.98,11.59.79,5.8-2.08,11.58-8.61,14.19ZM593.76,656.3c4.86-2.45,5.1-9.26,1.53-12.22-3.03-2.52-8.85-2.96-12.13-1.41l.24,15.14c3.75-.01,7.37,0,10.36-1.51Z"/>
    <path class="st10" d="M262.34,663.43c-13.48,3.5-8.18-9.14-19.18-6.78l-.49,7.04-6.96-.06-.03-27.57,16.4.19c5.22.06,8.99,3.9,9.62,7.52.89,5.09-1.08,8.83-5.77,11.47l6.4,8.19ZM252.82,649.46c2.77-1.67,1.72-5.34.08-7.24l-9.77-.19-.05,8.39c3,.4,7.01.69,9.74-.96Z"/>
    <path class="st10" d="M563.56,661.8c-.64,4.94-7.53.55-9.15-1.66-2.88-3.9-6.34-7.78-9.99-11.69l-.66,14.73c-1.84.39-5.04.51-6.93.22l-.19-26.94c1.97-.15,6.18-.29,7.31.96l12.82,14.3.75-14.42c.13-1.62,6.35-1.59,6.52-.01.3,7.6.56,16.38-.48,24.51Z"/>
    <path class="st10" d="M692.36,663.41c-13.58,3.17-8.25-9.52-18.6-7l-.74,7c-1.65.52-5.69.4-6.93-.95l.06-26.21,16.85.12c4.83.03,8.68,3.86,9.34,7.42.88,4.76-1.22,8.39-6.06,11.4l6.09,8.21ZM682.93,649.77c1.24-.37,2.58-2.97,2.46-3.97-.56-4.74-7.33-4.03-11.85-3.95l.08,8.59c2.97.14,6.55.14,9.3-.67Z"/>
    <path class="st10" d="M366.11,663.5c-13.06,3.69-9-10.72-19.06-6.43l-.48,6.48-6.68-.17-.2-26.97,15.93-.06c4.7-.02,9.2,3.14,10.07,6.81,1.15,4.8-.53,9.06-5.88,12.05l6.3,8.31ZM354.46,650.55c1.65-.01,3.97-2.57,4.14-3.85.15-1.11-1.07-3.78-2.2-4.03-2.49-.55-6.2-.67-9.25-.7l-.05,8.65,7.35-.06Z"/>
    <path class="st10" d="M397.83,652.84l-13.02.35.14,4.76,14.77.22c.88.94,1.02,4.12.62,5.74l-23.4-.28.21-27.44,21.33-.02c1.51,0,1.92,4.95.71,5.43l-13.23.41c-1.33.05-1.72,4.42-.75,5.07l12.39.53.24,5.22Z"/>
    <path class="st10" d="M294.39,652.65l-13.41.52-.25,4.7,15.7.35v5.6s-23.48.02-23.48.02l.23-27.7,22.82.08.04,5.59-14.94.31c-.21.82-.44,3.78-.44,5.09l13.26.31.46,5.12Z"/>
    <path class="st10" d="M518.34,659.19l-14.02-.17c-1.79,4.58-4.82,5.64-9.82,4.34l13.2-26.65c1.71-.99,6.87-1.05,7.79.8l12.88,26.01-6.54.21c-1.4.05-2.26-2.64-3.49-4.55ZM515.69,653.15l-4.36-9.09-4.36,8.93,8.72.16Z"/>
    <path class="st10" d="M811.02,649.02c3.47,1.3,5.88,4.35,5.54,7.68-.32,3.11-2.9,6.15-6.48,7-6.78,1.61-13.05.45-19.47-3.16.92-1.37,2.7-3.75,3.54-4.69,5.57,1.63,10.28,5.25,15.56-.08l-11.85-4.42c-3.44-1.28-5.95-4.22-5.86-7.49.09-3.22,2.59-6.41,6.13-7.49,6.16-1.89,12.29-.88,17.42,2.28l-2.36,3.71c-1.34,2.1-11.32-4.69-14.08,2.2l11.92,4.48Z"/>
    <path class="st10" d="M431.16,660.19c-2.6-1.81-10.44-1.85-13.25-.29-3.05,2.02-4.89,5.84-10.21,3.41l13.43-26.67c1.68-.8,5.26-.71,7.23.17l12.63,26.47c-5.03,1.99-7.01-.6-9.82-3.1ZM428.9,653.24l-4.66-9.3-4.22,9.42,8.88-.12Z"/>
    <path class="st10" d="M724.56,659.18l-14.29-.06c-1.62,4.69-5.65,5.5-9.96,4.13l13.51-26.79c2.12-.32,5.23-.19,7.24.29l12.68,26.63c-4.51.98-8,1.26-9.17-4.19ZM721.71,653.25l-4.66-9.29-4.36,9.23,9.02.06Z"/>
    <path class="st7" d="M466.12,610.66c14.43,2.99,27.95,4.75,40.44-2.24,10.75-6.02,17.24-17.08,17.03-29.13l-.2-10.83c5.22,11.6,6.37,26.49-2.81,37.56-12.63,15.24-38.57,18.47-54.46,4.64Z"/>
    <polygon class="st7" points="860.46 630.98 854.57 625.31 917.93 633.57 918.73 606.41 923.2 611.49 922.77 640.22 860.46 630.98"/>
    <polygon class="st7" points="384.51 619.38 378.33 614.07 442.91 612.45 443.41 589.21 448.07 593.26 447.99 618.59 384.51 619.38"/>
    <path class="st7" d="M887.9,598.96c-.01,1-1.53,3.33-2.39,3.13s-2.4-1.99-2.41-3.05l-.3-31.7c9.72-.99,17.78,2.05,26.68,6.55l.61-32.53,4.92,4.71v32.72c-8.98-3.55-17.05-5.86-26.73-6.28l-.37,26.46Z"/>
    <path class="st7" d="M655,587.45c-4.42-2.71-4.7-9.06-4.67-14.27l.28-52.65c.04-7.07,1.51-17.94,9.91-18.62,4.18-.34,8.04.94,8.3,5.71-3.21.12-7.23.35-9.34,1.94-1.93,1.45-3.82,5.58-3.84,8.44l-.64,69.45Z"/>
    <path class="st7" d="M734.66,620.44l-28.26-.89-8.04-5.37,32.08.62c-1.54-9.9,0-19.16,2.4-29.33l19.53.93c.98.05,2.9,1.17,3.51,1.72s.01,3.19-1.07,3.18l-17.43-.17c-1.86,9.87-2.61,17.95-2.73,29.31Z"/>
    <path class="st7" d="M330.69,621.21c-11.48,1.05-23.54,1.81-34.63,1.58-1.64-.03-4.58-3.15-5.36-4.34l35.08-2.48c-3.28-7.07-5.03-13.5-4.95-20.67l.36-32.29c5.59,3.48,4.31,8.75,4.38,13.26l.44,28.82c.08,5.27,2.67,9.85,4.68,16.11Z"/>
    <path class="st7" d="M346.98,620.9c-1.76.07-3.85-4.3-2.87-5.6l28.01-1.29c-.2-4.32-1.56-7.53-3.67-11.19-3.24-5.61-5.06-11.76-7.4-17.78l-11.36-29.18c11.91-8.86,17.2-22.24,16.96-36.61l-.23-14.15c7.79,17.24,5.8,43.94-11.76,55.89l6.5,18.17,8.17,20.95c2.63,6.76,5.17,12.41,8.57,19.58l-30.91,1.21Z"/>
    <path class="st7" d="M412.17,586.81c-.01,1.1-5.04,1.41-4.95.48l-.38-29.55c8.87-2.22,18.13-.41,27.63,4.2l.31-29.79c1.4.67,4.72,2.99,4.72,4.23l.09,29.5c-9.53-3.51-17.7-4.76-27.2-3.63l-.24,24.55Z"/>
    <path class="st7" d="M888.05,540.5l-2.62-4.38c-.53,2.34-.42,3.4-2.24,4.63l-.23-32.12c16.72.14,21.09-.85,35.57,4.15l.73-23.78c5.78,3.5,3.8,22.41,4.13,29.32-14.65-5.97-19.61-4.15-35.06-4.4l-.27,26.57Z"/>
    <path class="st7" d="M168.08,541.08c.03.92-4.58,1.39-4.58.32l-.2-32.46c13.12-.98,22.4-2.73,35.47,2.61l.87-22.59,4.31,4.83-.65,22.1c-5.51-2.19-10.24-3.45-16.02-3.12l-18.77,1.05-.43,27.26Z"/>
    <polygon class="st10" points="647.44 663.52 640.22 663.46 640.29 642.18 631.52 641.65 631.38 636.14 656.15 636.13 656.28 641.76 647.51 642.19 647.44 663.52"/>
    <path class="st10" d="M321.08,663.77l-7.23-.42-.12-21.15-8.57-.45c-.56-.89-.47-4.42.06-5.7l24.5.08.21,5.7-8.84.36-.03,21.57Z"/>
    <path class="st10" d="M462.49,663.06c-1.9.4-5.35.49-7.01.27l-.18-21.2-8.58-.47-.03-5.52h24.65s-.41,5.53-.41,5.53l-8.06.66-.4,20.74Z"/>
    <path class="st7" d="M412.12,528.97c0,1.01-.82,2.83-1.54,2.94-.95.15-3.5-.65-3.52-1.67l-.46-24.88c15.22-.62,21.8-1,36.16,3.44l.85-20.63c.73.62,3.7,3.81,3.69,5.27l-.11,19.92c-5.6-1.7-10.1-3.67-15.05-3.6l-20.14.3.11,18.92Z"/>
    <polygon class="st10" points="783.82 658.03 784.15 663.88 762.21 663.72 762.35 636.26 769.57 636.24 769.81 657.7 783.82 658.03"/>
    <polygon class="st10" points="750.4 663.69 742.95 663.63 742.95 636.26 750.33 636.29 750.4 663.69"/>
    <path class="st7" d="M502.11,524.64c-2.29.84-4.45-4.71-2.53-5.74,7.27-3.91,15.11-6.53,22.77-8.88l-1.38-11.04c3.87,4.84,4.97,10.45,6.33,16.38l-25.19,9.28Z"/>
    <path class="st7" d="M679.24,529.09c-.96-.73-2.49-2.24-4.42-4.26,7.53-4.45,14.86-6.69,23.41-8.08l-.48-14.69c3.91,6.38,4.46,13.74,3.92,20.69-8.07,1.64-14.7,3.51-22.44,6.34Z"/>
    <polygon class="st10" points="897.12 657.26 830.48 657.25 832.44 655.25 895.5 655.25 897.12 657.26"/>
    <path class="st10" d="M219.13,656.29c-21.87,1.6-43.24,1.6-66.07.01,21.63-1.69,43.26-1.71,66.07-.01Z"/>
    <path class="st7" d="M482.14,513.91l-.99,5.81c-4.9-4.22-5.13-10.21-1.94-15.4,1.27-2.06,5.32-3.55,7.54-3.36,3.08.27,6.47,3.17,6.06,5.85-2.57.22-5.51.39-7.36,1.2-1.54.67-2.97,3.95-3.3,5.89Z"/>
    <path class="st7" d="M788.19,514.86c-1.05.55-3.18-1.21-3.59-2.48-1.51-4.66,8.51-7.23,13.3-7.27.14,2.21,0,4.64-1.11,5.22l-8.6,4.53Z"/>
    <path class="st7" d="M535.95,515.12c-.24.05-2.17-1.65-2.63-2.54-1.77-3.45,6.22-8.87,13.02-7.32,1.39.32.06,4.54-1.33,5.07-3.04,1.16-5.24,2.41-9.06,4.8Z"/>
    <path class="st7" d="M661.87,562.37l8.35-2.06c.66,2.32-.42,5.14-2.12,6.14-2.35,1.39-4.06.26-6.23-4.09Z"/>
    <path class="st7" d="M236.91,583.7l.43,13.94c-3.57-2.2-5.34-6.46-5.34-10.68v-64.7c0-7.79-.06-18.62,8.32-20.04,4.5-.76,9.17.39,10.39,5.59-3.22.05-6.8,0-9.05,1.17-2.05,1.06-4.37,5.38-4.39,8.2l-.36,66.51Z"/>
    <path class="st7" d="M325.63,509.31l.09,27.34c0,1.59-2.72,2.77-4.72,2.12l-.41-33.86c5.51-.58,16.01-.78,16.1,4.82l-11.06-.42Z"/>
    <path class="st7" d="M743.24,560.68c-1.01.82-4.68.86-6.3.41l6.07-29.09c5.87.95.87,23.3.24,28.68Z"/>
    <g>
      <g id="_x3C_Mirror_Repeat_x3E_2" data-name="_x3C_Mirror_Repeat_x3E_">
        <g class="st15">
          <path class="st14" d="M560.23,461.08s-436.97,1.03-436.97,1.03l5.82-4.87c-1.48,8.83-3.41,17.47-5.68,26.12-2.26,8.6-4.85,17.13-7.91,25.56-4.75,12.76-10.09,25.78-19,36.56-3.38,3.94-7.34,7.46-12.42,9.47,0,0,1.21-9.04,1.21-9.04,1.36,1.07,2.57,2.17,3.79,3.34,10.23,9.95,17.75,22.72,21.13,36.62.72,3.02,1.24,6.2,1.61,9.29,3.93,29.21,10.02,58.23,15.99,87.1,0,0-3.29-2.62-3.29-2.62,18.48-.79,45.07.02,63.83.22,31.77.38,95.88,1.45,127.66,1.97,0,0,63.83,1.19,63.83,1.19-56.89,1.1-134.6,2.4-191.49,3.16-20.06-.13-46.94,1.47-66.71.06,0,0-.41-2.46-.41-2.46-6.9-29-13.9-57.92-18.5-87.41-2.02-15.77-10.25-30.55-22.25-40.94-1.25-1.04-7.23-5.66-8.55-6.69,0,0,8.34-3.49,8.34-3.49,2.77-1.16,5.57-3.64,7.99-6.64,7.62-9.75,12.13-21.69,16.23-33.52,2.71-8.14,5.05-16.43,7.17-24.76,2.48-9.96,4.91-20.01,6.7-30.03,0,0,4.92.01,4.92.01,0,0,436.97,1.03,436.97,1.03,0,0,0,9.76,0,9.76h0Z"/>
        </g>
      </g>
      <g id="_x3C_Mirror_Repeat_x3E_3" data-name="_x3C_Mirror_Repeat_x3E_">
        <g class="st11">
          <path class="st14" d="M519.77,451.33s436.97-1.03,436.97-1.03c0,0,4.92-.01,4.92-.01,1.78,10.03,4.22,20.07,6.7,30.03,2.12,8.33,4.46,16.62,7.17,24.76,4.1,11.83,8.61,23.77,16.23,33.52,2.42,3,5.22,5.48,7.99,6.64l8.34,3.49c-1.19.96-7.59,5.85-8.55,6.69-12,10.38-20.22,25.17-22.25,40.94-4.6,29.5-11.59,58.42-18.5,87.41,0,0-.41,2.45-.41,2.45-19.68,1.43-46.76-.1-66.71-.05-56.84-.79-134.65-2.02-191.48-3.16,0,0,63.83-1.19,63.83-1.19,31.87-.6,95.81-1.5,127.66-1.97,18.87-.29,45.25-1.04,63.83-.22,0,0-3.3,2.63-3.29,2.62,5.97-28.87,12.06-57.9,15.99-87.1.72-6.27,2.16-12.49,4.46-18.37,4.48-11.49,11.69-21.9,21-30,.34-.29.61-.51,1.07-.87,0,0,1.21,9.04,1.21,9.04-9.53-3.87-15.55-12.8-20.4-21.18-8.75-15.99-14.25-33.02-18.93-50.41-2.27-8.65-4.2-17.28-5.68-26.12,0,0,5.82,4.87,5.82,4.87,0,0-436.97-1.03-436.97-1.03,0,0,0-9.76,0-9.76h0Z"/>
        </g>
      </g>
    </g>
  </g>
  <path class="st17" d="M624.27,452.29v-6.33s-12.77,9.75-24.54,0c0,0,7.73-.67,12.27-9.24,0,0-3.53,5.04-10.42,0,0,0,15.46-8.4,16.81-12.6,0,0-6.39,6.05-12.77,5.38,0,0,7.56-5.55,7.9-7.39,0,0-4.71,4.2-9.58,0,0,0,8.57-2.52,12.27-11.26,0,0-4.54,5.21-10.92,2.02,0,0,11.93-7.56,15.29-13.95,0,0-4.87,6.89-11.76,3.19,0,0,11.76-10.42,11.6-12.44,0,0-2.69,3.87-8.4,1.85,0,0,8.07-7.56,9.75-10.76,0,0-4.87,3.87-8.23.84,0,0,9.92-6.55,10.76-10.76,0,0-2.69,3.53-5.21,2.52,0,0,8.4-8.4,7.9-16.13,0,0,4.71,14.45,8.57,15.46,0,0-3.87.17-4.96-1.43,0,0,5.46,8.57,10.34,9.92,0,0-5.04,2.27-8.15.34,0,0,5.8,7.9,10.08,10.17,0,0-4.96,1.85-9.58-2.02,0,0,6.13,9.24,11.85,11.68,0,0-5.38,5.46-12.52-1.93,0,0,9.92,10.59,15.97,13.7,0,0-5.46,2.77-10.76,0,0,0,6.47,8.07,13.86,10.25,0,0-3.36,3.53-9.16,1.93,0,0,1.34,1.93,4.03,3.36,0,0-2.35.76-4.2-.67,0,0,5.88,6.39,11.6,7.31,0,0-7.14,7.73-15.71-1.93,0,0,5.46,9.25,17.23,14.28,0,0-10.84,8.65-24.45-1.76l.25,6.42h-6.97Z"/>
  <path class="st17" d="M277.31,451.29v-4.4s-8.88,6.78-17.06,0c0,0,5.37-.47,8.53-6.42,0,0-2.45,3.5-7.24,0,0,0,10.75-5.84,11.68-8.76,0,0-4.44,4.21-8.88,3.74,0,0,5.26-3.85,5.49-5.14,0,0-3.27,2.92-6.66,0,0,0,5.96-1.75,8.53-7.83,0,0-3.15,3.62-7.59,1.4,0,0,8.29-5.26,10.63-9.7,0,0-3.39,4.79-8.18,2.22,0,0,8.18-7.24,8.06-8.64,0,0-1.87,2.69-5.84,1.28,0,0,5.61-5.26,6.78-7.48,0,0-3.39,2.69-5.72.58,0,0,6.89-4.56,7.48-7.48,0,0-1.87,2.45-3.62,1.75,0,0,5.84-5.84,5.49-11.21,0,0,3.27,10.05,5.96,10.75,0,0-2.69.12-3.45-.99,0,0,3.8,5.96,7.18,6.89,0,0-3.5,1.58-5.67.23,0,0,4.03,5.49,7.01,7.07,0,0-3.45,1.28-6.66-1.4,0,0,4.26,6.42,8.24,8.12,0,0-3.74,3.8-8.7-1.34,0,0,6.89,7.36,11.1,9.52,0,0-3.8,1.93-7.48,0,0,0,4.5,5.61,9.64,7.13,0,0-2.34,2.45-6.37,1.34,0,0,.93,1.34,2.8,2.34,0,0-1.64.53-2.92-.47,0,0,4.09,4.44,8.06,5.08,0,0-4.96,5.37-10.92-1.34,0,0,3.8,6.43,11.97,9.93,0,0-7.53,6.02-17-1.23l.18,4.46h-4.85Z"/>
  <path class="st17" d="M445.27,452.5v-6.54s-13.19,10.06-25.33,0c0,0,7.98-.69,12.67-9.54,0,0-3.64,5.21-10.76,0,0,0,15.96-8.68,17.35-13.01,0,0-6.59,6.25-13.19,5.55,0,0,7.81-5.73,8.16-7.63,0,0-4.86,4.34-9.89,0,0,0,8.85-2.6,12.67-11.63,0,0-4.69,5.38-11.28,2.08,0,0,12.32-7.81,15.79-14.4,0,0-5.03,7.11-12.15,3.3,0,0,12.15-10.76,11.97-12.84,0,0-2.78,3.99-8.68,1.91,0,0,8.33-7.81,10.06-11.11,0,0-5.03,3.99-8.5.87,0,0,10.24-6.77,11.11-11.11,0,0-2.78,3.64-5.38,2.6,0,0,8.68-8.68,8.16-16.66,0,0,4.86,14.92,8.85,15.96,0,0-3.99.17-5.12-1.47,0,0,5.64,8.85,10.67,10.24,0,0-5.21,2.34-8.42.35,0,0,5.99,8.16,10.41,10.5,0,0-5.12,1.91-9.89-2.08,0,0,6.33,9.54,12.23,12.06,0,0-5.55,5.64-12.93-2,0,0,10.24,10.93,16.48,14.14,0,0-5.64,2.86-11.11,0,0,0,6.68,8.33,14.32,10.58,0,0-3.47,3.64-9.46,2,0,0,1.39,2,4.16,3.47,0,0-2.43.78-4.34-.69,0,0,6.07,6.59,11.97,7.55,0,0-7.37,7.98-16.22-2,0,0,5.64,9.55,17.79,14.75,0,0-11.19,8.94-25.25-1.82l.26,6.62h-7.2Z"/>
  <path class="st17" d="M805.02,451.29v-4.4s-8.88,6.78-17.06,0c0,0,5.37-.47,8.53-6.42,0,0-2.45,3.5-7.24,0,0,0,10.75-5.84,11.68-8.76,0,0-4.44,4.21-8.88,3.74,0,0,5.26-3.85,5.49-5.14,0,0-3.27,2.92-6.66,0,0,0,5.96-1.75,8.53-7.83,0,0-3.15,3.62-7.59,1.4,0,0,8.29-5.26,10.63-9.7,0,0-3.39,4.79-8.18,2.22,0,0,8.18-7.24,8.06-8.64,0,0-1.87,2.69-5.84,1.28,0,0,5.61-5.26,6.78-7.48,0,0-3.39,2.69-5.72.58,0,0,6.89-4.56,7.48-7.48,0,0-1.87,2.45-3.62,1.75,0,0,5.84-5.84,5.49-11.21,0,0,3.27,10.05,5.96,10.75,0,0-2.69.12-3.45-.99,0,0,3.8,5.96,7.18,6.89,0,0-3.5,1.58-5.67.23,0,0,4.03,5.49,7.01,7.07,0,0-3.45,1.28-6.66-1.4,0,0,4.26,6.42,8.24,8.12,0,0-3.74,3.8-8.7-1.34,0,0,6.89,7.36,11.1,9.52,0,0-3.8,1.93-7.48,0,0,0,4.5,5.61,9.64,7.13,0,0-2.34,2.45-6.37,1.34,0,0,.93,1.34,2.8,2.34,0,0-1.64.53-2.92-.47,0,0,4.09,4.44,8.06,5.08,0,0-4.96,5.37-10.92-1.34,0,0,3.8,6.43,11.97,9.93,0,0-7.53,6.02-17-1.23l.18,4.46h-4.85Z"/>
  <path class="st17" d="M653.34,274.54c-2.01-2.09-6.99-4.57-6.99-4.57,1.4.17,5.92-2.34,5.92-2.34-2.26.51-4.22-.63-4.22-.63,5.66-1.59,7.48-5.92,7.48-5.92-2.29,1.5-5.84,1.14-5.84,1.14,4.76-1.89,8.58-8.25,8.58-8.25-1.9,1.48-8.21,3.26-8.21,3.26,4.96-2.36,6.74-9.42,6.74-9.42-2.23,2.13-11.38,5.83-16.61,7.18-3.25.84-5.63,8.06-5.63,8.06-1.49,4.29-4.8,1.9-4.8,1.9-.7-.53-1.11-1.24-1.4-1.71-1.17-1.9-2.69-2.08-2.69-2.08-1.16-.29-2.49-.22-3.78.3-1.62.64-2.81,1.83-3.37,3.17-.89.07-3.54.41-5.01,2.25l2.34.36s.19.54.5.64c.21.06,1.52.21,2.32.32.63,1.11,1.79,1.84,3.15,2.08,1.07.19,3.25.48,4.39,2.84,1.29,2.66,3.08,4.54,8.96,6.73,9.86,3.67,16.26-.29,16.26-.29,4.54,5.01,16.5,9.7,16.5,9.7-.68-.39-5.32-4.83-5.32-4.83,3.74,1.64,10.37,1.78,11.86,1.79-3.05-.16-10.59-5.11-10.59-5.11,2.08.55,9.44-1.98,9.44-1.98l-20-4.58Z"/>
  <path class="st17" d="M428.8,274.54c2.01-2.09,6.99-4.57,6.99-4.57-1.4.17-5.92-2.34-5.92-2.34,2.26.51,4.22-.63,4.22-.63-5.66-1.59-7.48-5.92-7.48-5.92,2.29,1.5,5.84,1.14,5.84,1.14-4.76-1.89-8.58-8.25-8.58-8.25,1.9,1.48,8.21,3.26,8.21,3.26-4.96-2.36-6.74-9.42-6.74-9.42,2.23,2.13,11.38,5.83,16.61,7.18,3.25.84,5.63,8.06,5.63,8.06,1.49,4.29,4.8,1.9,4.8,1.9.7-.53,1.11-1.24,1.4-1.71,1.17-1.9,2.69-2.08,2.69-2.08,1.16-.29,2.49-.22,3.78.3,1.62.64,2.81,1.83,3.37,3.17.89.07,3.54.41,5.01,2.25l-2.34.36s-.19.54-.5.64c-.21.06-1.52.21-2.32.32-.63,1.11-1.79,1.84-3.15,2.08-1.07.19-3.25.48-4.39,2.84-1.29,2.66-3.08,4.54-8.96,6.73-9.86,3.67-16.26-.29-16.26-.29-4.54,5.01-16.5,9.7-16.5,9.7.68-.39,5.32-4.83,5.32-4.83-3.74,1.64-10.37,1.78-11.86,1.79,3.05-.16,10.59-5.11,10.59-5.11-2.08.55-9.44-1.98-9.44-1.98l20-4.58Z"/>
  <path class="st5" d="M228.8,451.34s42.46-155.46,179.34-213.75c0,0,123.43-53.44,248.44-3.24,125.01,50.2,174.86,159.51,174.86,159.51,0,0,14.51,31.31,21.89,57.49v.94"/>
  <g>
    <path class="st17" d="M367.74,452.29v-11.07s-22.32,17.04-42.89,0c0,0,13.51-1.17,21.44-16.16,0,0-6.17,8.81-18.21,0,0,0,27.02-14.69,29.37-22.03,0,0-11.16,10.57-22.32,9.4,0,0,13.22-9.69,13.81-12.92,0,0-8.22,7.34-16.74,0,0,0,14.98-4.41,21.44-19.68,0,0-7.93,9.11-19.09,3.52,0,0,20.86-13.22,26.73-24.38,0,0-8.52,12.04-20.56,5.58,0,0,20.56-18.21,20.27-21.74,0,0-4.7,6.76-14.69,3.23,0,0,14.1-13.22,17.04-18.8,0,0-8.52,6.76-14.39,1.47,0,0,17.33-11.46,18.8-18.8,0,0-4.7,6.17-9.11,4.41,0,0,14.69-14.69,13.81-28.2,0,0,8.22,25.26,14.98,27.02,0,0-6.76.29-8.67-2.5,0,0,9.55,14.98,18.07,17.33,0,0-8.81,3.97-14.25.59,0,0,10.13,13.81,17.62,17.77,0,0-8.67,3.23-16.74-3.52,0,0,10.72,16.16,20.71,20.42,0,0-9.4,9.55-21.88-3.38,0,0,17.33,18.51,27.91,23.94,0,0-9.55,4.85-18.8,0,0,0,11.31,14.1,24.23,17.92,0,0-5.87,6.17-16.01,3.38,0,0,2.35,3.38,7.05,5.87,0,0-4.11,1.32-7.34-1.17,0,0,10.28,11.16,20.27,12.78,0,0-12.48,13.51-27.47-3.38,0,0,9.55,16.17,30.11,24.97,0,0-18.95,15.13-42.74-3.08l.44,11.21h-12.19Z"/>
    <g>
      <path class="st17" d="M351.86,328.34s13.33-6.72,16.02-12.66"/>
      <path class="st7" d="M351.86,328.34c5.54-3.96,11.94-7.09,16.02-12.66-2.46,5.95-10.3,10.29-16.02,12.66h0Z"/>
    </g>
    <g>
      <path class="st17" d="M351.86,343.57s12.13-7.58,13.78-12.53"/>
      <path class="st7" d="M351.86,343.57c2.43-2.02,4.92-3.91,7.32-5.89,2.34-2.02,4.9-3.9,6.46-6.64-.85,3.11-3.48,5.37-5.82,7.41-2.46,1.99-5.1,3.76-7.96,5.12h0Z"/>
    </g>
    <g>
      <path class="st17" d="M358.05,342.98s3.23-.33,6.46-5.27"/>
      <path class="st7" d="M358.05,342.98c2.56-1.28,4.35-3.4,6.46-5.27-.92,2.68-3.45,5.36-6.46,5.27h0Z"/>
    </g>
    <g>
      <path class="st17" d="M348.1,362.03c.99-1.32,14.97-11.34,17.21-16.88"/>
      <path class="st7" d="M348.1,362.03c2.32-2.66,6.29-5.81,8.92-8.21,2.94-2.71,6.15-5.24,8.29-8.67-1.45,3.85-4.69,6.69-7.63,9.42-3.01,2.73-6.36,5.01-9.58,7.46h0Z"/>
    </g>
    <g>
      <path class="st17" d="M355.41,361.43s8.06-5.98,9.38-8.84"/>
      <path class="st7" d="M355.41,361.43c2.87-3.19,6.54-5.66,9.38-8.84-.71,2.11-2.44,3.67-4.01,5.14-1.65,1.42-3.4,2.72-5.37,3.7h0Z"/>
    </g>
    <g>
      <path class="st17" d="M343.68,380.86s8.6-2.87,12.16-8.51"/>
      <path class="st7" d="M343.68,380.86c4.37-2.39,8.79-4.75,12.16-8.51-2.24,4.63-7.3,7.43-12.16,8.51h0Z"/>
    </g>
    <g>
      <path class="st17" d="M355.84,376.6s9.1-5.34,10.78-10.38"/>
      <path class="st7" d="M355.84,376.6c3.76-3.29,8.15-6.04,10.78-10.38-1.31,4.96-6.36,8.35-10.78,10.38h0Z"/>
    </g>
    <g>
      <path class="st17" d="M341.41,397.67s8.8-3.07,13.55-10.98"/>
      <path class="st7" d="M341.41,397.67c5.18-2.79,9.88-6.35,13.55-10.98-2.5,5.44-7.82,9.48-13.55,10.98h0Z"/>
    </g>
    <g>
      <path class="st17" d="M347.54,397.67s5.54-.49,7.42-3.66"/>
      <path class="st7" d="M347.54,397.67c2.6-1.06,5.3-1.72,7.42-3.66-.99,2.88-4.63,4.03-7.42,3.66h0Z"/>
    </g>
    <g>
      <path class="st17" d="M342.2,408.65s6.76-2.87,9.66-7.22"/>
      <path class="st7" d="M342.2,408.65c3.36-2.34,6.75-4.34,9.66-7.22-1.79,3.75-5.75,6.18-9.66,7.22h0Z"/>
    </g>
    <g>
      <path class="st17" d="M340.32,422.1s12.76-3.46,18.3-11.27"/>
      <path class="st7" d="M340.32,422.1c6.62-2.81,13.35-5.89,18.3-11.27-3.87,6.32-11.26,9.81-18.3,11.27h0Z"/>
    </g>
    <g>
      <path class="st17" d="M348.18,424.57s5.42-1.19,8.52-4.05"/>
      <path class="st7" d="M348.18,424.57c2.83-1.42,5.77-2.54,8.52-4.06-1.92,2.64-5.33,3.97-8.52,4.06h0Z"/>
    </g>
    <g>
      <path class="st17" d="M335.37,441.09s10.68-1.29,15.87-8.8"/>
      <path class="st7" d="M335.37,441.09c5.9-1.67,11.69-4.17,15.87-8.8-3.07,5.57-9.72,8.54-15.87,8.8h0Z"/>
    </g>
  </g>
  <path class="st17" d="M532.95,451.29v-15.48s-31.24,23.84-60.01,0c0,0,18.91-1.64,30-22.61,0,0-8.63,12.33-25.48,0,0,0,37.81-20.55,41.1-30.83,0,0-15.62,14.8-31.24,13.15,0,0,18.5-13.56,19.32-18.08,0,0-11.51,10.28-23.43,0,0,0,20.96-6.17,30-27.54,0,0-11.1,12.74-26.72,4.93,0,0,29.18-18.5,37.4-34.11,0,0-11.92,16.85-28.77,7.81,0,0,28.77-25.48,28.36-30.41,0,0-6.58,9.45-20.55,4.52,0,0,19.73-18.5,23.84-26.3,0,0-11.92,9.45-20.14,2.06,0,0,24.25-16.03,26.3-26.3,0,0-6.58,8.63-12.74,6.17,0,0,20.55-20.55,19.32-39.46,0,0,11.51,35.35,20.96,37.81,0,0-9.45.41-12.12-3.49,0,0,13.36,20.96,25.28,24.25,0,0-12.33,5.55-19.93.82,0,0,14.18,19.32,24.66,24.87,0,0-12.12,4.52-23.43-4.93,0,0,15,22.61,28.98,28.56,0,0-13.15,13.36-30.62-4.73,0,0,24.25,25.89,39.05,33.5,0,0-13.36,6.78-26.3,0,0,0,15.82,19.73,33.91,25.07,0,0-8.22,8.63-22.4,4.73,0,0,3.29,4.73,9.86,8.22,0,0-5.75,1.85-10.28-1.64,0,0,14.39,15.62,28.36,17.88,0,0-17.47,18.91-38.43-4.73,0,0,13.36,22.62,42.13,34.94,0,0-26.51,21.17-59.8-4.32l.62,15.69h-17.06Z"/>
  <g>
    <g>
      <path class="st17" d="M510.73,277.87s18.64-9.4,22.42-17.71"/>
      <path class="st7" d="M510.73,277.87c7.46-4.86,15.62-9.33,21.43-16.21.32-.5.65-1,.99-1.51-3.46,7.97-14.72,14.28-22.42,17.71h0Z"/>
    </g>
    <g>
      <path class="st17" d="M510.73,299.18s16.97-10.61,19.28-17.53"/>
      <path class="st7" d="M510.73,299.18c5.88-4.63,12.55-9.17,17.49-14.8.71-.84,1.28-1.75,1.79-2.73-2.4,7.19-12.8,13.98-19.28,17.53h0Z"/>
    </g>
    <g>
      <path class="st17" d="M519.4,298.35s4.52-.46,9.04-7.38"/>
      <path class="st7" d="M519.4,298.35c3.2-1.33,5.64-3.84,7.99-6.3.34-.37.67-.74,1.05-1.08-.78,1.88-2,3.57-3.52,4.93-1.53,1.31-3.45,2.48-5.52,2.45h0Z"/>
    </g>
    <g>
      <path class="st17" d="M505.47,325.01c1.38-1.85,20.94-15.87,24.08-23.62"/>
      <path class="st7" d="M505.47,325.01c3.89-4.12,8.45-7.52,12.61-11.34,3.86-3.55,8.04-6.95,10.92-11.37,0,0,.55-.91.55-.91-2.17,5.3-6.7,9.21-10.8,13.03-4.13,3.75-8.95,7.08-13.27,10.59h0Z"/>
    </g>
    <g>
      <path class="st17" d="M515.7,324.17s11.27-8.37,13.12-12.37"/>
      <path class="st7" d="M515.7,324.17c4.24-4.31,9.31-7.68,13.12-12.37-1.14,2.87-3.54,5-5.75,7.05-2.3,1.99-4.72,3.83-7.38,5.33h0Z"/>
    </g>
    <g>
      <path class="st17" d="M499.29,351.35s12.04-4.01,17.02-11.9"/>
      <path class="st7" d="M499.29,351.35c6.23-3.1,12.51-6.47,17.02-11.9-3.38,6.31-10.3,10.12-17.02,11.9h0Z"/>
    </g>
    <g>
      <path class="st17" d="M516.31,345.4s12.73-7.47,15.08-14.53"/>
      <path class="st7" d="M516.31,345.4c5.34-4.32,11.73-8.37,15.08-14.53-1.94,6.64-9.17,11.56-15.08,14.53h0Z"/>
    </g>
    <g>
      <path class="st17" d="M496.11,374.87s12.32-4.29,18.96-15.36"/>
      <path class="st7" d="M496.11,374.87c7.37-3.66,14.04-8.71,18.96-15.36-3.74,7.46-11.04,13-18.96,15.36h0Z"/>
    </g>
    <g>
      <path class="st17" d="M504.69,374.87s7.75-.69,10.38-5.12"/>
      <path class="st7" d="M504.69,374.87c3.64-1.2,7.67-2.23,10.38-5.12-1.63,3.86-6.48,5.33-10.38,5.12h0Z"/>
    </g>
    <g>
      <path class="st17" d="M497.22,390.23s9.46-4.01,13.51-10.1"/>
      <path class="st7" d="M497.21,390.23c4.72-2.96,9.74-5.95,13.51-10.1-2.74,5.09-8.15,8.37-13.51,10.1h0Z"/>
    </g>
    <g>
      <path class="st17" d="M494.59,409.05s17.85-4.84,25.6-15.78"/>
      <path class="st7" d="M494.59,409.05c8.2-3.2,16.47-6.96,22.96-13.03.97-.82,1.75-1.82,2.64-2.75-.71,1.06-1.42,2.14-2.29,3.09-6.03,6.68-14.66,10.68-23.31,12.69h0Z"/>
    </g>
    <g>
      <path class="st17" d="M505.59,412.51s7.59-1.66,11.92-5.67"/>
      <path class="st7" d="M505.59,412.51c4.11-1.76,8.15-3.28,11.92-5.67-2.88,3.49-7.5,5.28-11.92,5.67h0Z"/>
    </g>
    <g>
      <path class="st17" d="M487.67,435.62s14.94-1.8,22.21-12.32"/>
      <path class="st7" d="M487.67,435.62c7.24-1.82,14.52-4.72,19.97-9.96.84-.69,1.46-1.58,2.24-2.35-4.55,7.62-13.61,11.65-22.21,12.32h0Z"/>
    </g>
  </g>
  <g>
    <path class="st17" d="M711.21,451.83v-11.07s-22.32,17.04-42.89,0c0,0,13.51-1.17,21.44-16.16,0,0-6.17,8.81-18.21,0,0,0,27.02-14.69,29.37-22.03,0,0-11.16,10.57-22.32,9.4,0,0,13.22-9.69,13.81-12.92,0,0-8.22,7.34-16.74,0,0,0,14.98-4.41,21.44-19.68,0,0-7.93,9.11-19.09,3.52,0,0,20.86-13.22,26.73-24.38,0,0-8.52,12.04-20.56,5.58,0,0,20.56-18.21,20.27-21.74,0,0-4.7,6.76-14.69,3.23,0,0,14.1-13.22,17.04-18.8,0,0-8.52,6.76-14.39,1.47,0,0,17.33-11.46,18.8-18.8,0,0-4.7,6.17-9.11,4.41,0,0,14.69-14.69,13.81-28.2,0,0,8.22,25.26,14.98,27.02,0,0-6.76.29-8.67-2.5,0,0,9.55,14.98,18.07,17.33,0,0-8.81,3.97-14.25.59,0,0,10.13,13.81,17.62,17.77,0,0-8.67,3.23-16.74-3.52,0,0,10.72,16.16,20.71,20.42,0,0-9.4,9.55-21.88-3.38,0,0,17.33,18.51,27.91,23.94,0,0-9.55,4.85-18.8,0,0,0,11.31,14.1,24.23,17.92,0,0-5.87,6.17-16.01,3.38,0,0,2.35,3.38,7.05,5.87,0,0-4.11,1.32-7.34-1.17,0,0,10.28,11.16,20.27,12.78,0,0-12.48,13.51-27.47-3.38,0,0,9.55,16.17,30.11,24.97,0,0-18.95,15.13-42.74-3.08l.44,11.21h-12.19Z"/>
    <g>
      <path class="st17" d="M695.33,327.89s13.33-6.72,16.02-12.66"/>
      <path class="st7" d="M695.33,327.89c5.54-3.96,11.94-7.09,16.02-12.66-2.46,5.95-10.3,10.29-16.02,12.66h0Z"/>
    </g>
    <g>
      <path class="st17" d="M695.33,343.12s12.13-7.58,13.78-12.53"/>
      <path class="st7" d="M695.33,343.12c2.43-2.02,4.92-3.91,7.32-5.89,2.34-2.02,4.9-3.9,6.46-6.64-.85,3.11-3.48,5.37-5.82,7.41-2.46,1.99-5.1,3.76-7.96,5.12h0Z"/>
    </g>
    <g>
      <path class="st17" d="M701.53,342.53s3.23-.33,6.46-5.27"/>
      <path class="st7" d="M701.53,342.53c2.56-1.28,4.35-3.4,6.46-5.27-.92,2.68-3.45,5.36-6.46,5.27h0Z"/>
    </g>
    <g>
      <path class="st17" d="M691.57,361.58c.99-1.32,14.97-11.34,17.21-16.88"/>
      <path class="st7" d="M691.57,361.58c2.32-2.66,6.29-5.81,8.92-8.21,2.94-2.71,6.15-5.24,8.29-8.67-1.45,3.85-4.69,6.69-7.63,9.42-3.01,2.73-6.36,5.01-9.58,7.46h0Z"/>
    </g>
    <g>
      <path class="st17" d="M698.88,360.98s8.06-5.98,9.38-8.84"/>
      <path class="st7" d="M698.88,360.98c2.87-3.19,6.54-5.66,9.38-8.84-.71,2.11-2.44,3.67-4.01,5.14-1.65,1.42-3.4,2.72-5.37,3.7h0Z"/>
    </g>
    <g>
      <path class="st17" d="M687.16,380.41s8.6-2.87,12.16-8.51"/>
      <path class="st7" d="M687.16,380.41c4.37-2.39,8.79-4.75,12.16-8.51-2.24,4.63-7.3,7.43-12.16,8.51h0Z"/>
    </g>
    <g>
      <path class="st17" d="M699.32,376.15s9.1-5.34,10.78-10.38"/>
      <path class="st7" d="M699.32,376.15c3.76-3.29,8.15-6.04,10.78-10.38-1.31,4.96-6.36,8.35-10.78,10.38h0Z"/>
    </g>
    <g>
      <path class="st17" d="M684.88,397.22s8.8-3.07,13.55-10.98"/>
      <path class="st7" d="M684.88,397.22c5.18-2.79,9.88-6.35,13.55-10.98-2.5,5.44-7.82,9.48-13.55,10.98h0Z"/>
    </g>
    <g>
      <path class="st17" d="M691.01,397.22s5.54-.49,7.42-3.66"/>
      <path class="st7" d="M691.01,397.22c2.6-1.06,5.3-1.72,7.42-3.66-.99,2.88-4.63,4.03-7.42,3.66h0Z"/>
    </g>
    <g>
      <path class="st17" d="M685.67,408.2s6.76-2.87,9.66-7.22"/>
      <path class="st7" d="M685.67,408.2c3.36-2.34,6.75-4.34,9.66-7.22-1.79,3.75-5.75,6.18-9.66,7.22h0Z"/>
    </g>
    <g>
      <path class="st17" d="M683.79,421.65s12.76-3.46,18.3-11.27"/>
      <path class="st7" d="M683.79,421.65c6.62-2.81,13.35-5.89,18.3-11.27-3.87,6.32-11.26,9.81-18.3,11.27h0Z"/>
    </g>
    <g>
      <path class="st17" d="M691.66,424.12s5.42-1.19,8.52-4.05"/>
      <path class="st7" d="M691.66,424.12c2.83-1.42,5.77-2.54,8.52-4.06-1.92,2.64-5.33,3.97-8.52,4.06h0Z"/>
    </g>
    <g>
      <path class="st17" d="M678.85,440.64s10.68-1.29,15.87-8.8"/>
      <path class="st7" d="M678.85,440.64c5.9-1.67,11.69-4.17,15.87-8.8-3.07,5.57-9.72,8.54-15.87,8.8h0Z"/>
    </g>
  </g>
  <path class="st16" d="M243.56,716.53s4.75-.79,7.52-4.35c0,0-6.33.53-6.73-.79,0,0,6.33-2.24,6.73-6.99,0,0-4.22.92-4.88-.79,0,0,6.59-3.3,7.25-7.25,0,0-2.64.79-4.09,0,0,0,8.18-9.23,8.44-13.98h4.75s1.19,10.81,7.25,13.32c0,0-3.3.86-4.68-.53,0,0,5.64,12.96,11.18,15.23,0,0-3.07,2.57-5.93.2,0,0,5.44,10.68,9.1,11.47,0,0-4.85,1.88-7.62,0,0,0,11.77,17.9,20.77,19.48l7.71,24.53s17.6-1.68,20.67-8.11c0,0-6.03,1.88-8.6.1,0,0,10.38-6.33,11.47-11.57,0,0-6.23.59-7.12-1.29.3-.3,9.89-7.62,11.57-13.45,0,0-4.85,1.58-7.02.2,0,0,7.02-5.84,8.11-11.57,0,0-2.57,1.38-4.65.3,0,0,8.51-9.3,10.38-21.16,0,0,2.87,15.33,7.81,18,0,0-2.87,1.19-4.15,0,0,0,4.95,8.01,8.9,9.1,0,0-5.74,2.27-7.42.69,0,0,7.32,11.37,10.88,11.67,0,0-4.25.99-9.49-.69,0,0,5.14,11.37,10.88,12.16,0,0-2.18,3.07-8.31,1.98,0,0,13.85,17.8,23.74,19.19s11.27,30.76,11.27,30.76c0,0,2.24,5.01,5.93,5.54,0,0-2.77,1.19-4.62,0,0,0,6.99,9.1,11.47,8.44,0,0-4.35,3.3-6.86,1.05,0,0,6.73,7.52,9.49,7.78,0,0-5.14.53-6.46-.53l1.05,4.22s7.91,5.41,13.98,3.82c0,0,14.51,2.9,21.89,1.85s8.57,1.98,8.57,1.98c0,0,8.97-.66,12.4-4.35,0,0-4.22.07-6.46-1.91,0,0,5.01-2.11,7.45-6,0,0-2.57.79-5.74.2,0,0,5.67-2.18,7.19-5.21,0,0-4.35.86-5.67-.26,0,0,5.87-2.97,7.52-6.79,0,0-4.22-.66-4.55-1.85,0,0,5.8-3.36,7.45-7.52,0,0-2.9.26-3.89-.59,0,0,9.63-10.02,10.62-19.38,0,0,2.7,18,8.9,21.49,0,0-3.43,1.32-4.62,0,0,0,4.48,8.51,8.51,9.43,0,0-3.89,1.71-6.13,0,0,0,4.62,8.7,9.56,8.9,0,0-3.89,1.65-7.38.33,0,0,.13,7.78,9.03,9.56,0,0-7.12,1.78-8.7.46,0,0,4.29,7.32,11.08,7.98,0,0-5.47,4.88-11.54,3.36,0,0-2.18,3.36,6.79,3.43s16.35,6.13,16.35,6.13l9.56,11.01,3.36,3.3,3.03,12.07-26.11,7.52h-10.48l-67.85-19.58-44.51-20.18-37.78-28.88-36.99-36.59-33.63-47.67-8.31-17.8,1.38-.59Z"/>
  <path class="st16" d="M830.57,717.53s-4.75-.79-7.52-4.35c0,0,6.33.53,6.73-.79,0,0-6.33-2.24-6.73-6.99,0,0,4.22.92,4.88-.79,0,0-6.59-3.3-7.25-7.25,0,0,2.64.79,4.09,0,0,0-8.18-9.23-8.44-13.98h-4.75s-1.19,10.81-7.25,13.32c0,0,3.3.86,4.68-.53,0,0-5.64,12.96-11.18,15.23,0,0,3.07,2.57,5.93.2,0,0-5.44,10.68-9.1,11.47,0,0,4.85,1.88,7.62,0,0,0-11.77,17.9-20.77,19.48l-7.71,24.53s-17.6-1.68-20.67-8.11c0,0,6.03,1.88,8.6.1,0,0-10.38-6.33-11.47-11.57,0,0,6.23.59,7.12-1.29-.3-.3-9.89-7.62-11.57-13.45,0,0,4.85,1.58,7.02.2,0,0-7.02-5.84-8.11-11.57,0,0,2.57,1.38,4.65.3,0,0-8.51-9.3-10.38-21.16,0,0-2.87,15.33-7.81,18,0,0,2.87,1.19,4.15,0,0,0-4.95,8.01-8.9,9.1,0,0,5.74,2.27,7.42.69,0,0-7.32,11.37-10.88,11.67,0,0,4.25.99,9.49-.69,0,0-5.14,11.37-10.88,12.16,0,0,2.18,3.07,8.31,1.98,0,0-13.85,17.8-23.74,19.19-9.89,1.38-11.27,30.76-11.27,30.76,0,0-2.24,5.01-5.93,5.54,0,0,2.77,1.19,4.62,0,0,0-6.99,9.1-11.47,8.44,0,0,4.35,3.3,6.86,1.05,0,0-6.73,7.52-9.49,7.78,0,0,5.14.53,6.46-.53l-1.05,4.22s-7.91,5.41-13.98,3.82c0,0-14.51,2.9-21.89,1.85-7.38-1.05-8.57,1.98-8.57,1.98,0,0-8.97-.66-12.4-4.35,0,0,4.22.07,6.46-1.91,0,0-5.01-2.11-7.45-6,0,0,2.57.79,5.74.2,0,0-5.67-2.18-7.19-5.21,0,0,4.35.86,5.67-.26,0,0-5.87-2.97-7.52-6.79,0,0,4.22-.66,4.55-1.85,0,0-5.8-3.36-7.45-7.52,0,0,2.9.26,3.89-.59,0,0-9.63-10.02-10.62-19.38,0,0-2.7,18-8.9,21.49,0,0,3.43,1.32,4.62,0,0,0-4.48,8.51-8.51,9.43,0,0,3.89,1.71,6.13,0,0,0-4.62,8.7-9.56,8.9,0,0,3.89,1.65,7.38.33,0,0-.13,7.78-9.03,9.56,0,0,7.12,1.78,8.7.46,0,0-4.29,7.32-11.08,7.98,0,0,5.47,4.88,11.54,3.36,0,0,2.18,3.36-6.79,3.43s-16.35,6.13-16.35,6.13l-9.56,11.01-3.36,3.3-3.03,12.07,26.11,7.52h10.48s67.85-19.58,67.85-19.58l44.51-20.18,37.78-28.88,36.99-36.59,33.63-47.67,8.31-17.8-1.38-.59Z"/>
  <g>
    <g id="_x3C_Mirror_Repeat_x3E_4" data-name="_x3C_Mirror_Repeat_x3E_">
      <g class="st2">
        <path class="st19" d="M229.33,684.76s22.95,56.57,38.77,73.19c0,0,9.49-2.64,12.26-10.02,0,0-7.52,6.07-12.66.26,0,0,12.13-4.35,14.37-9.89,0,0-8.57,2.51-11.74-1.98,0,0,12.4-5.54,12.66-9.36,0,0-5.27.13-6.46-2.24,0,0,7.25-5.14,7.65-9.23,0,0-4.48,1.58-5.67-1.05,0,0,6.07-2.24,6.46-5.27,0,0-4.88,1.98-5.93.92,0,0,6.73-3.69,6.59-6.73,0,0-3.96,2.51-4.88,1.05,0,0,9.49-11.21,9.89-19.12,0,0,5.41,13.71,10.15,17.93,0,0-.4,2.11-4.09.53,0,0,1.71,6.2,6.33,7.65,0,0-2.77,1.58-4.62.4,0,0,2.77,5.93,5.67,6.46,0,0-3.96,1.58-5.93.13,0,0,5.93,9.76,13.05,11.6,0,0-8.84,1.85-12.26-.92,0,0,9.1,8.97,14.37,9.49,0,0-6.2,3.16-11.21.53,0,0,6.86,10.95,14.51,11.47,0,0-4.09,3.3-13.05.53,0,0,6.59,11.21,10.42,13.05,0,0-4.88,2.24-8.44,0,0,0,8.04,9.36,13.98,10.55,0,0-3.69,2.37-7.38,0,0,0,3.3,4.88,6.73,5.54,0,0-9.36,1.45-11.87-.79,0,0,2.37,5.01,5.93,5.01,0,0-14.64,1.58-19.12-.92,0,0,17.41,24.4,33.23,31.78,0,0,6.99,4.09,11.6,8.44,0,0,27.82,22.55,45.76,25.71,17.93,3.16,35.74,4.35,35.74,4.35,0,0,10.15,1.05,19.12,6.73,8.97,5.67,26.24,11.47,17.67,11.21s-.66,0-.66,0c0,0-20.44-.67-25.58-3.57,0,0,7.91,7.25,31.25,6.59,0,0,10.02-.92,17.8,1.58,0,0-2.9-4.35-16.48-6.46,0,0,2.51-4.22,23.47,3.16,0,0-3.16-7.38-15.96-10.95,0,0,5.54-2.77,18.2,6.46,0,0-1.58-3.82-6.99-8.18,0,0,10.55,3.16,15.82,10.95,0,0,.53-8.57-8.18-18.59,0,0,9.36,6.86,13.32,15.82,0,0-7.25-12.79-5.93-21.49,0,0,7.38,15.16,13.58,17.54,0,0-4.62-5.93-4.35-11.47,0,0,4.88,9.63,9.1,10.29,0,0-2.11-6.46-4.88-8.7,0,0,7.25,4.88,8.31,7.52,0,0,2.9.92,0-5.54,0,0,3.43,2.77,4.62,5.27,0,0-.26-4.88-4.75-10.68,0,0,5.01,4.22,8.04,8.84,0,0,6.96-13.48,1.02-31.38,0,0-13.45,12.76-19.78,10.29,0,0,6.33-4.95,6.23-10.19,0,0-15.23,12.56-30.26-1.29-.1.2,19.19-7.02,20.08-12.66,0,0-12.26,2.27-23.14-8.41,0,0,25.32-11.57,31.45-21.46,0,0-13.45-.3-23.74-8.21,0,0,23.44-2.67,33.33-19.09,0,0-10.78,4.05-26.21-6.53,0,0,22.55-3.96,25.91-13.75,0,0-10.48,2.51-17.51-1.51,0,0,20.11-9.27,22.62-18.63,0,0-4.09,3.03-13.58-1.32,0,0,13.71-8.97,13.45-13.58,0,0-5.27,1.45-9.1-1.45,0,0,17.14-11.6,21.16-34.55v229.19s-139.58,7.91-239.27-91.78c0,0-55.38-54.86-75.16-119.47l5.14.4Z"/>
      </g>
    </g>
    <g id="_x3C_Mirror_Repeat_x3E_5" data-name="_x3C_Mirror_Repeat_x3E_">
      <g class="st9">
        <path class="st19" d="M847.92,684.76s-22.95,56.57-38.77,73.19c0,0-9.49-2.64-12.26-10.02,0,0,7.52,6.07,12.66.26,0,0-12.13-4.35-14.37-9.89,0,0,8.57,2.51,11.74-1.98,0,0-12.4-5.54-12.66-9.36,0,0,5.27.13,6.46-2.24,0,0-7.25-5.14-7.65-9.23,0,0,4.48,1.58,5.67-1.05,0,0-6.07-2.24-6.46-5.27,0,0,4.88,1.98,5.93.92,0,0-6.73-3.69-6.59-6.73,0,0,3.96,2.51,4.88,1.05,0,0-9.49-11.21-9.89-19.12,0,0-5.41,13.71-10.15,17.93,0,0,.4,2.11,4.09.53,0,0-1.71,6.2-6.33,7.65,0,0,2.77,1.58,4.62.4,0,0-2.77,5.93-5.67,6.46,0,0,3.96,1.58,5.93.13,0,0-5.93,9.76-13.05,11.6,0,0,8.84,1.85,12.26-.92,0,0-9.1,8.97-14.37,9.49,0,0,6.2,3.16,11.21.53,0,0-6.86,10.95-14.51,11.47,0,0,4.09,3.3,13.05.53,0,0-6.59,11.21-10.42,13.05,0,0,4.88,2.24,8.44,0,0,0-8.04,9.36-13.98,10.55,0,0,3.69,2.37,7.38,0,0,0-3.3,4.88-6.73,5.54,0,0,9.36,1.45,11.87-.79,0,0-2.37,5.01-5.93,5.01,0,0,14.64,1.58,19.12-.92,0,0-17.41,24.4-33.23,31.78,0,0-6.99,4.09-11.6,8.44,0,0-27.82,22.55-45.76,25.71-17.93,3.16-35.74,4.35-35.74,4.35,0,0-10.15,1.05-19.12,6.73-8.97,5.67-26.24,11.47-17.67,11.21s.66,0,.66,0c0,0,20.44-.67,25.58-3.57,0,0-7.91,7.25-31.25,6.59,0,0-10.02-.92-17.8,1.58,0,0,2.9-4.35,16.48-6.46,0,0-2.51-4.22-23.47,3.16,0,0,3.16-7.38,15.96-10.95,0,0-5.54-2.77-18.2,6.46,0,0,1.58-3.82,6.99-8.18,0,0-10.55,3.16-15.82,10.95,0,0-.53-8.57,8.18-18.59,0,0-9.36,6.86-13.32,15.82,0,0,7.25-12.79,5.93-21.49,0,0-7.38,15.16-13.58,17.54,0,0,4.62-5.93,4.35-11.47,0,0-4.88,9.63-9.1,10.29,0,0,2.11-6.46,4.88-8.7,0,0-7.25,4.88-8.31,7.52,0,0-2.9.92,0-5.54,0,0-3.43,2.77-4.62,5.27,0,0,.26-4.88,4.75-10.68,0,0-5.01,4.22-8.04,8.84,0,0-6.96-13.48-1.02-31.38,0,0,13.45,12.76,19.78,10.29,0,0-6.33-4.95-6.23-10.19,0,0,15.23,12.56,30.26-1.29.1.2-19.19-7.02-20.08-12.66,0,0,12.26,2.27,23.14-8.41,0,0-25.32-11.57-31.45-21.46,0,0,13.45-.3,23.74-8.21,0,0-23.44-2.67-33.33-19.09,0,0,10.78,4.05,26.21-6.53,0,0-22.55-3.96-25.91-13.75,0,0,10.48,2.51,17.51-1.51,0,0-20.11-9.27-22.62-18.63,0,0,4.09,3.03,13.58-1.32,0,0-13.71-8.97-13.45-13.58,0,0,5.27,1.45,9.1-1.45,0,0-17.14-11.6-21.16-34.55v229.19s139.58,7.91,239.27-91.78c0,0,55.38-54.86,75.16-119.47l-5.14.4Z"/>
      </g>
    </g>
  </g>
  <path class="st19" d="M426.1,855.35s-4.35,1.05-4.48-13.85c0,0-3.03-18.46-2.77-40.22,0,0,21.1-9.49,25.85-39.56,0,0,1.98-18.79.99-23.74,0,0,9.3-.4,12.46-12.46,0,0,.73-3.96-5.34,0,0,0-8.77,4.29-6.92.73s10.95-6.92,10.95-6.92c0,0,19.91-6.96,16.75-20.41,0,0-3.76,12.26-9.99,12.56,0,0,16.42-22.55-3.16-36.99,0,0,5.84,6.33,5.04,15.13,0,0-4.55-12.07-12.76-14.64,0,0,12.36,9.1,8.8,24.63,0,0-2.87-17.01-10.58-17.01,0,0,14.14,23.44-.79,31.15l-1.38.3s1.88-10.38-4.85-15.73c0,0,7.62,14.44-5.54,27.79,0,0-11.57,3.56-14.14-19.48,0,0-1.78,5.93-.49,11.97,0,0-13.55-1.19-15.82-26.21,0,0-2.57,9.4.79,20.97,0,0-17.7-1.48-9.69-28.38,0,0-6.13,3.86-7.22,14.84,0,0-5.93-4.35,1.98-23.34,0,0-4.95,3.36-8.7,18,0,0-9.99-8.31,0-23.24,0,0-11.87,6.63-7.71,24.33,0,0,5.74,14.84,22.55,21.56,0,0,9.79,5.64,19.48,5.74,0,0,12.66,6.33,4.65,6.63,0,0-22.15-10.78-17.8-3.07s6.63,12.56,15.43,13.35c0,0,.3,17.51-18.3,19.58,0,0-14.74,2.97-31.15-.79,0,0-23.74-4.25-35.6,12.26,0,0-4.35,7.91-1.58,11.87,0,0,3.46,11.47,2.57-.59,0,0,2.27-9.1,2.77.2s2.37,12.07,2.37,12.07c0,0,1.48,8.8-2.37,11.47l-5.04,5.34s-3.62,1.88-1.22,11.27c0,0,5.47,5.04,8.83,6.53l-1.48-7.71s-1.58-2.47,2.87-4.45,10.29-9.3,10.29-9.3c0,0,4.15-6.03.69,2.67l-2.77,4.65s-1.88,4.65.69,9.89l4.35,13.65.89,2.27,8.8,5.54,4.75.3s-12.36-10.88-11.77-25.22c0,0-.79-2.47,4.45-7.42s8.51-9.1,8.51-9.1c0,0,1.88-3.56,7.32-2.37,0,0,7.32,4.55,15.43,3.86,0,0,4.85,9.99,2.47,45l.1,2.27h6.03l.89-22.35s3.96-16.12,3.26-25.12c0,0,8.9,27.89,8.11,48.66,0,0,1.65,3.3,2.18,3.43s7.12-2.77,7.12-2.77Z"/>
  <path class="st19" d="M651.15,855.35s4.35,1.05,4.48-13.85c0,0,3.03-18.46,2.77-40.22,0,0-21.1-9.49-25.85-39.56,0,0-1.98-18.79-.99-23.74,0,0-9.3-.4-12.46-12.46,0,0-.73-3.96,5.34,0,0,0,8.77,4.29,6.92.73-1.85-3.56-10.95-6.92-10.95-6.92,0,0-19.91-6.96-16.75-20.41,0,0,3.76,12.26,9.99,12.56,0,0-16.42-22.55,3.16-36.99,0,0-5.84,6.33-5.04,15.13,0,0,4.55-12.07,12.76-14.64,0,0-12.36,9.1-8.8,24.63,0,0,2.87-17.01,10.58-17.01,0,0-14.14,23.44.79,31.15l1.38.3s-1.88-10.38,4.85-15.73c0,0-7.62,14.44,5.54,27.79,0,0,11.57,3.56,14.14-19.48,0,0,1.78,5.93.49,11.97,0,0,13.55-1.19,15.82-26.21,0,0,2.57,9.4-.79,20.97,0,0,17.7-1.48,9.69-28.38,0,0,6.13,3.86,7.22,14.84,0,0,5.93-4.35-1.98-23.34,0,0,4.95,3.36,8.7,18,0,0,9.99-8.31,0-23.24,0,0,11.87,6.63,7.71,24.33,0,0-5.74,14.84-22.55,21.56,0,0-9.79,5.64-19.48,5.74,0,0-12.66,6.33-4.65,6.63,0,0,22.15-10.78,17.8-3.07s-6.63,12.56-15.43,13.35c0,0-.3,17.51,18.3,19.58,0,0,14.74,2.97,31.15-.79,0,0,23.74-4.25,35.6,12.26,0,0,4.35,7.91,1.58,11.87,0,0-3.46,11.47-2.57-.59,0,0-2.27-9.1-2.77.2s-2.37,12.07-2.37,12.07c0,0-1.48,8.8,2.37,11.47l5.04,5.34s3.62,1.88,1.22,11.27c0,0-5.47,5.04-8.83,6.53l1.48-7.71s1.58-2.47-2.87-4.45-10.29-9.3-10.29-9.3c0,0-4.15-6.03-.69,2.67l2.77,4.65s1.88,4.65-.69,9.89l-4.35,13.65-.89,2.27-8.8,5.54-4.75.3s12.36-10.88,11.77-25.22c0,0,.79-2.47-4.45-7.42-5.24-4.95-8.51-9.1-8.51-9.1,0,0-1.88-3.56-7.32-2.37,0,0-7.32,4.55-15.43,3.86,0,0-4.85,9.99-2.47,45l-.1,2.27h-6.03s-.89-22.35-.89-22.35c0,0-3.96-16.12-3.26-25.12,0,0-8.9,27.89-8.11,48.66,0,0-1.65,3.3-2.18,3.43s-7.12-2.77-7.12-2.77Z"/>
  <line class="st6" x1="538.63" y1="670.34" x2="538.63" y2="895.76"/>
  <g>
    <path class="st16" d="M538.55,899.76h.23c-.22-.15-.43-.3-.68-.41-.48-.22-.88-.48-1.22-.77l-11.46,16.11c-7.5,10.54-8.78,24.07-1.92,35.28l11.49,18.76c.51-15.77-3.16-25.26,2.55-42.37,4.07,11.61,4.12,23.77,2.56,36.29-.18,1.45.07,3.76.3,5.91l7.53-10.62c7.87-11.09,12.03-27.17,3.92-38.91l-13.3-19.26Z"/>
    <path class="st16" d="M501.21,955.66c3.36,5.25,7.16,8.84,10.66,13.2,6.11,6.58,11.91,12.83,15.17,21.35l-9.47-8.04c-18.36-15.59-26.38-22.86-35.68-46.84,17.7,9.62,27.03,13.63,39.79,28.84,3.82,6.78,7.52,12.81,10.13,20.66-4.52-2.32-5.86-6.16-8.94-9.03l-21.66-20.14Z"/>
    <path class="st16" d="M554.49,981.02c1.23-5.81,10.98-13,14.42-20.27l-12.05,10.52c-4.49,3.92-7.81,8.68-11.92,13.65,1.19-11.02,8.04-19.02,14.75-26.91,5.7-6.71,13.28-11.65,20.98-15.89l12.54-6.91c-6.5,17.28-15.23,30.92-29.81,41.33-2.38,1.7-6.42.68-8.91,4.49ZM557.31,966.28l10.61-11.71c-4.03,1.72-12.29,10.28-12.75,13.56-.04.31.69.15.88-.1.21-.28.99-1.46,1.26-1.75Z"/>
    <path class="st16" d="M578.74,982.01l5.26-6.56c-6.55.99-6.67,6.71-10.02,9.78-6.92,6.33-13.63,12.2-21.75,17.77,1.89-6.03,6.29-9.19,10.24-13.22,8.11-8.29,16.51-16.45,26.59-22.11,6.03-3.39,11.29-6.64,18.53-8.49-9.41,13.79-29.4,38.49-45.7,42.56l10.02-10.51c2.55-2.67,4.06-5.75,6.84-9.22ZM586.2,974.01c5.72-2.76,9.82-5.83,14.15-9.45-5.74,2.03-11,4.85-14.15,9.45Z"/>
    <path class="st16" d="M489.04,973.07c-5.52-3.43-10.58-6.69-15.65-8.63,1.38,3.11,4.51,2.71,6.53,4.15,2.89,2.07,6.43,4.72,8.78,7.32,8.41,9.33,16.51,17.76,25.73,26.96-13.23-5.45-24-14.09-32.86-24.8l-16.2-19.6c18.18,7.18,34.95,16.7,47.9,32.21-4.25,3.99-19.66-11.33-21.75-13.44.19-1.05.64-2.24.27-2.47l-2.73-1.7Z"/>
    <path class="st16" d="M242.07,803.22c3.14,4.83,6.82,8.67,10.59,13.68-3.32.51-5.68-1.6-7.95-3.99-16.09-16.89-4.83-6.3-11.06-14.84-3.93-5.39-4.94-12.11-5.77-18.94,9.13,8.27,20.8,19.16,23.09,31.52-9.42-7.48-11.68-16.71-19.08-23.11l10.18,15.68Z"/>
    <path class="st16" d="M743.58,889.26c1.16-5.8,1.91-9.24,2.09-14.65-2.16,3.82-2.79,6.26-4.14,10.05-2.8-10.44-2.04-21.54,5.11-31.48l3.54,10.58c3.2,9.57-.08,19.14-6.6,25.5Z"/>
    <path class="st16" d="M333.2,872.78c-.69,4.92.83,10.15,2.67,15.74-12.33-12.01-10.02-19.51-4.93-35.36,6.32,9.06,9.44,19.06,6.55,30.68-1.55-3.27-2.58-6.13-4.28-11.05Z"/>
    <path class="st16" d="M716.9,904.61c-9.08,12.86-14.65,19.34-32.15,18.09,5.98-12.23,20.06-16.98,32.15-18.09ZM705.21,913.5c-3.74-2.21-5.14-1.79-7.08-.45l-7.95,5.48,15.04-5.02Z"/>
    <path class="st16" d="M837.87,807.11l-9.51,10.07c.66-5.73,13.09-16.5,13.82-22.91l-14.84,17.85c-3.03-7.69,17.93-29.01,22.58-32.28.19,5.3-.59,10.32-2.27,14.19-1.09-.33-3.1-2.46-3.54-1.9-.5.64-1.79,2.28-1.71,2.18l4.89,1.67c-6.15,1.18-8.09,9.73-9.42,11.13Z"/>
    <path class="st16" d="M876.66,721.71l2.18-9.19-4.42,8.1-3.45.79c-.86.2-.44-3.16,0-4.05,2.39-4.95,6.49-10.57,10.75-15.84,1.82,4.02,1.15,27.1-5.45,27.31-.81.03-1.57-3.31-.89-3.76l4.02-2.65-2.73-.73Z"/>
    <path class="st16" d="M222.14,766.21c-4.94-.77-3.96-6.49-6.48-9.51-3.34-4.02-6.42-8.4-2.9-14.67,7.89,4.83,10.64,14.5,9.38,24.19Z"/>
    <path class="st16" d="M201.73,730.23c-.63-6.03-2.18-11.9-6.05-16.93l.63,6.32c-4.31-1.7-5.91-5.87-5.56-10.04l.61-7.21c9.54,9.07,15.75,20.53,14.86,34.66l-7.39-6.45c-1.11-.97-1.14-4.35-.4-5.13l3.29,4.79Z"/>
    <path class="st16" d="M855.76,759.48l-1.01,7.16c-2.96-8.35.39-17.22,7.79-22.9,1.85,4.26,2.24,9.84-.2,13.73l-6.58,2.02Z"/>
    <path class="st16" d="M671.93,920.59c-4.5,6.54-12.77,7.87-19.55,5.28l7.77-4.43c3.45-1.96,7.24-3.1,11.78-.86Z"/>
    <path class="st16" d="M823.44,795.49c-1.57,1.45-3.64,3.33-4.96,3.1-1.07-5.29,3.4-10.73,7.51-12.1,1.37-.13,2.8,4.04,1.82,4.96l-4.36,4.05Z"/>
    <path class="st16" d="M420.57,923.98c-7.84,1.07-13.02.03-17.24-6.24,6.59-1.82,12.37,1.83,17.24,6.24Z"/>
    <path class="st16" d="M800.55,839.97c-5.08,4.86-7.18,10-14.69,10.55,3.94-5.76,8.01-9.73,14.53-13.44l.16,2.88Z"/>
    <path class="st16" d="M290.29,849.33c-4.95-1.16-8.67-4.54-11.56-8.45l-4.68-5.35c6.89,2.64,12.5,6.69,16.24,13.8Z"/>
    <path class="st16" d="M253.69,791.69c.11-.38-.78,1.02-.56,1.31l1.82,2.34c-3.28-.07-5.38-5.73-3.17-8.68,3.32.49,7.8,4.13,6.73,8.57l-4.81-3.55Z"/>
    <path class="st16" d="M766.67,873.02l-4.16,3.96c-.25-6.79,6.03-10.29,12.25-9.97-1.86,2.98-4.63,5.03-8.09,6Z"/>
    <path class="st16" d="M316.71,876.36c-4.27-4-7.69-6.7-12.72-9.5,5.79-.95,12.94,2.76,12.72,9.5Z"/>
  </g>
  <path class="st3" d="M1761-335.33c-5.62,2.18-12.45.52-16.91-4.29,6.23-1.19,11.41-.61,16.91,4.29Z"/>
  <g>
    <path class="st16" d="M542.49,177.45c-.31-4.29-1.18-7.79-1.93-12.04-1.78,7.99-2.03,15.43-2.4,25.17-11.93-13.68-8.87-24.98,2.31-39.33,11.73,15.57,13.48,24.26,2.99,39.48l-.96-13.28Z"/>
    <path class="st16" d="M809.53,305.84c-16.82-6.55-23.32-15.34-28.77-32.34,3.88,2.95,5.62,5.03,9.64,7.11l-12.5-12.76c6.94,1.6,21.18,9.86,24.08,17.65l7.56,20.34Z"/>
    <path class="st16" d="M306.16,274.44c-3.81,12.16-1.58,1.55-4.87,10.92-3.49,9.93-12.29,17.02-22.61,21.29,6.44-20.13,7.94-32.4,30.51-37.87-5.85,5.93-12.49,10.01-16.23,16.32l-6.79,11.45c7.89-6.81,7.57-14.84,20-22.11Z"/>
    <path class="st16" d="M894.91,430.61l-8.85-12.05c-5.28-7.18-7.57-15.66-6.77-24.78,11.42,8.78,17.98,21.99,15.62,36.83Z"/>
    <path class="st16" d="M322.13,248.44c-10.51,16.09-18.96,14.21-35.36,23.29,3.85-15.88,20.23-23.06,35.36-23.29ZM310.2,255.86c-5.98-1.78-12.16,1.46-14.59,7.35,5.38-2.21,9.59-4.36,14.59-7.35Z"/>
    <path class="st16" d="M206.74,392c3.04,14.24-6.56,27.08-14.08,37.85-2.68-14.94,2.4-28.75,14.08-37.85ZM195.87,418.97l7-13c-5.39-2.04-9.04,10.78-7,13Z"/>
    <path class="st16" d="M628.93,192.59l-19.84-4.91c-5-1.24-9.72-4.99-13.51-8.37,12.94-3.08,25.43,2.07,33.35,13.29Z"/>
    <path class="st16" d="M349.04,229.32l-14.26,3.55,6.03-6.58c6.24-6.81,15.15-9.66,24.38-6.42-4.02,4.93-9.48,7.79-16.16,9.46Z"/>
    <path class="st16" d="M214.25,380.93c-3.62-10.12,1.76-20.38,9.58-26.53,2.7,9.91-.34,20.69-9.58,26.53Z"/>
    <path class="st16" d="M494.3,187.21l-13.19,2.59c7.17-10.08,19.88-13.83,31.07-9.73-4.97,5.29-11.58,5.91-17.88,7.15Z"/>
    <path class="st16" d="M872.84,380.9c-9.14-4.63-13.24-15.75-11.27-25.39,8.13,5.95,13.38,14.45,11.27,25.39Z"/>
    <path class="st16" d="M684.77,203.54c8.12-1.17,17.83,7.79,20.58,13.84-10.07,1.14-18-4.59-20.58-13.84Z"/>
    <path class="st16" d="M752.07,237.16c-9.38.78-18.91-3.59-24.03-12.21,9.69-.77,17.44,4.1,24.03,12.21Z"/>
    <path class="st16" d="M852.64,347.63c-8.96,4.49-16.71-6.32-18.99-12.89,8.03-1.84,15.71,5.8,18.99,12.89Z"/>
    <path class="st16" d="M232.62,337.87c-3.43-10.16,4.73-19.73,10.5-26.55.8,6.12.03,10.85-1.65,16.13l-8.85,10.42Z"/>
    <path class="st16" d="M407.1,204.31c-6.48,10.86-7.51,11.36-20.07,12.94,2.85-6.74,12.14-17.03,20.07-12.94Z"/>
    <path class="st16" d="M432.7,196.05c-4.12,5.11-16.45,13.32-22.02,8.82,5.46-7.19,13.07-9.94,22.02-8.82Z"/>
    <path class="st16" d="M679.21,205.08c-4.78,5.15-17.66-4.03-21.33-9.25,8.33-.6,15.8,1.89,21.33,9.25Z"/>
    <path class="st16" d="M237.69,340.73l3.61.61c.78.13.16,2.13-.02,3.4l5.03-2.08c-2.69,4.46-8.05,6.28-13.01,4.21,2.84-8.64,9.63-15.02,18.81-15.5l-2.39,7.32-1.2-2.87c-.4-.95-8.75,2.48-10.83,4.9Z"/>
    <path class="st16" d="M853.82,339.87c-6.39-6.19-10.69-13.5-10.56-22.41,6.82,5.64,12.9,13.62,10.56,22.41Z"/>
    <path class="st16" d="M477.85,181.01c-3.86,5.92-11.07,7.91-17.82,7.2,4.98-5.07,10.57-8.28,17.82-7.2Z"/>
    <path class="st16" d="M767.74,269.18c-1.1.17-3.64-1.08-4.64-2.12-.88-.91-.72-4.23.46-4.65,2.77-.96,6.02,3.85,4.17,6.76Z"/>
    <path class="st16" d="M322.33,268.94c-1.41-.41-1.58-4.05-.67-5.05s3.6-2.11,5.09-2.05c.5,2.76-1.11,5.59-4.43,7.1Z"/>
  </g>
</svg>