<?xml version="1.0" encoding="UTF-8"?>
<svg id="Layer_1" xmlns="http://www.w3.org/2000/svg" version="1.1" xmlns:xlink="http://www.w3.org/1999/xlink" viewBox="0 0 1024 1024">
  <!-- Generator: Adobe Illustrator 30.2.1, SVG Export Plug-In . SVG Version: 2.1.1 Build 1)  -->
  <defs>
    <style>
      .st0 {
        fill: #8b6330;
      }

      .st1 {
        fill: #040d02;
      }

      .st2 {
        fill: #fff;
      }

      .st3 {
        fill: none;
      }

      .st4 {
        clip-path: url(#clippath-1);
      }

      .st5 {
        fill: #061006;
      }

      .st6 {
        fill: #071006;
      }

      .st7 {
        clip-path: url(#clippath);
      }
    </style>
    <clipPath id="clippath">
      <rect class="st3" x="81.55" y="371.02" width="447.73" height="236.09"/>
    </clipPath>
    <clipPath id="clippath-1">
      <rect class="st3" x="529.28" y="371.02" width="447.73" height="236.09"/>
    </clipPath>
  </defs>
  <path class="st2" d="M511.84,121.04c-1.51,6.55-2.24,13.18-2.94,21.34-10.46-10.93-6.54-27.17,2.78-37.14,10.7,9.57,13.44,27.12,3.68,37.1-.78-7.67-1.29-13.03-3.52-21.3Z"/>
  <path class="st2" d="M478.65,136.44c-6.32,3.13-12.8,3.59-19.41,1.99,5.55-9.95,18.25-12.44,28.05-6.26l-8.64,4.27Z"/>
  <path class="st2" d="M565.13,138.64c-9.79,1.88-19.87-.9-27.62-6.95,10.56-5.36,21.81-3.14,27.62,6.95Z"/>
  <path class="st2" d="M637.24,156.18c-9.59.22-17.69-3.62-23.98-11.54,10.33-2.54,19.9,1.64,23.98,11.54Z"/>
  <path class="st2" d="M410.31,145.02c-5.97,7.24-13.79,11.12-23.29,10.95,4.19-9.18,13.14-14.14,23.29-10.95Z"/>
  <path class="st2" d="M705.11,184.85c-8.97-.62-17.65-4.41-21.14-13.37,8.62-.97,17.36,4.64,21.14,13.37Z"/>
  <path class="st2" d="M341.38,172.55c-4.47,8.3-12.55,12.09-21.63,12.57,4.2-8.26,12.24-14.57,21.63-12.57Z"/>
  <path class="st2" d="M663.04,166.61c-7.44,2.11-15.37-2.93-17.46-10.56,7.73-.96,14.27,3.13,17.46,10.56Z"/>
  <path class="st2" d="M362.87,165.56c2.72-6.71,9.28-9.49,15.88-9.05-1.99,6.7-8.69,11.05-15.88,9.05Z"/>
  <path class="st2" d="M453,132.86c-3.07,5.4-9.08,8.86-15.06,6.19,3.58-4.52,8.29-7.25,15.06-6.19Z"/>
  <path class="st2" d="M585.76,139.07c-5.97,2.78-11.32-1.5-14.87-5.96,5.72-.95,10.87.33,14.87,5.96Z"/>
  <path class="st6" d="M278.43,497.96c-.14,22.44-11.35,42.42-35.42,43-8.88.22-17.98-2.09-23.92-9.07s-9.05-16.45-9.06-25.86l-.05-47.04c0-9.33.23-18.55,1.51-27.49,2.61-18.18,17.61-29.33,35.58-28.62,24.76.98,31.82,20.3,31.69,42.13l-.32,52.95ZM251.99,518.53c2.89-3.49,4.56-8.69,4.64-12.88l.71-36.68c.25-12.92.48-25.46-1.08-38.14-.87-7.1-6.95-11.77-13.57-10.83-5.76.82-10.46,6.28-10.51,13.19l-.51,71.77c-.03,4.14.84,9.37,2.86,12.63,3.6,5.79,12.94,6.42,17.47.94Z"/>
  <path class="st6" d="M341.43,532.99l-17.27-51.53-7.64.22.41,35.51c.07,5.77,1.85,11.22,3.88,16.92l-29.81,1.88c2.32-6.64,4.51-12.94,4.49-20.13l-.26-96.86c-.01-5.14-1.89-9.25-4.36-13.79,14.86-.18,29.46-.25,44.12.73,11.93.79,20.73,8.27,23.83,19.5,3.95,17.89,1.83,38.55-15.02,49.52l16.01,44.22c1.63,4.5,4.22,8.28,6.89,12.52l-25.25,1.28ZM329.76,423.04c-4.39-.53-8.59-.56-13.27-.5l-.09,40.17c6.89,1.15,15.55.13,19.85-6.49,4.9-7.55,7.2-31.53-6.49-33.17Z"/>
  <path class="st6" d="M649.82,513.87c8.9-3.93,6.56-26.25,6.88-35.14-4.08-.39-7.62.2-11.23,1.97l-.07-19.46,32.35.17c-.18,14.48-.2,28.41-1.31,42.77-.97,12.65-8.24,24.06-20.08,27.81-20.28,6.42-40.11-5.38-44.53-25.94-1.75-8.14-2.21-16.46-2.05-25.05l.82-42.37c.2-10.14,4.11-20.43,11.83-27.02,11.27-9.63,27.67-11.12,41.03-5.14,11.78,5.27,14.24,17.48,14.19,28.74-7.87,1.77-14.22,3.97-21.14,7.17l-.6-12.44c-.18-3.67-3.07-7.8-5.64-9.01-3.93-1.85-8.83-1.52-12.35,1.22s-5.46,7.64-5.56,12.24l-1.06,49.6c-.15,6.92.42,13.41,1.67,20.16,1.38,7.43,8.95,13.22,16.84,9.73Z"/>
  <path class="st6" d="M738.9,534.36c3.44-12.17.52-18.11-1.62-29.91l-26.04-1.08c-2.4,10.02-3.61,19.22-3.24,29.27l-26.05-.62c2.56-6.33,5.07-12.02,6.54-18.71l21.12-95.74c1-4.55.21-7.95-2.19-11.84l31.98.05c.67,7.68,1.01,14.09,2.51,21.3l18,86.9c1.63,7.86,4.26,14.61,8.3,21.95l-29.32-1.56ZM734.07,485.68l-10.39-52.1-9.49,51.54,19.88.56Z"/>
  <path class="st5" d="M853.85,484.89l.13,40.66c10.77,1.01,24.42,4.68,34.32.35l-.43,25.15-58.67-8.33c2.48-6.85,3.48-14.05,3.46-21.78l-.15-98.81c0-5.83-1.5-10.5-3.74-15.89l59.46.6.23,22.03c-11.56-2.19-22.49-2.86-34.55-2.55v37.67s13.23.64,13.23.64c4.58.22,8.94-1.52,13.21-4.5l-.69,29.98c-8.63-4.52-16.75-5.48-25.83-5.22Z"/>
  <path class="st6" d="M497.28,525.29c-15.2,10.25-42.65,7.91-50.71-12.96-1.55-4.02-2.78-8.82-3.66-12.77,8.07-2.34,14.6-4.67,21.86-7.88.66,7.54.09,19.3,10.78,20.42,4.47.47,8.87-.38,11.15-4.57,3.09-5.69,2.97-13.84-.72-19.44-8.34-12.65-22.65-18.26-34.38-34.72-9.77-13.7-8.36-33.89,5.53-44.3,11.03-8.27,26.64-8.76,38.7-2.92,8.73,4.23,12.65,13.43,13.13,22.42-7.16,2.79-13.4,5.02-20.5,8.65-.15-2.59-.4-6.61-.88-10.07-.78-5.71-6.3-8.48-11.03-8.07-4.89.42-9.41,4.08-9.91,9.53-.81,8.75,3.74,16.09,10.32,21.49,7.4,6.07,14.52,11.98,21.38,18.49,16.8,15.95,16.87,44.61-1.05,56.7Z"/>
  <path class="st6" d="M417.72,475.16l-18.45-.67-.16,37.28,24.93-.49c3.67-.07,6.93-2.33,9.73-5.12l.09,24.07-59.71,1.68c1.61-3.62,3.5-8.14,3.49-12.39l-.16-101.47c0-4.54-1.49-8.1-3.69-12.5l59.94-.24.47,21.19c-4.45-1.49-8.7-3.17-13.2-3.23l-21.85-.3-.13,32.86,15.77-.2c3.54-.04,7.7-2.46,10.64-4.14l-.22,26.27c-2.27-.9-5.4-2.53-7.47-2.61Z"/>
  <path class="st6" d="M192.62,488.43c-8.81-2.64-17.79-2.56-27.11-1.71l-.09,42.09c-.01,5.97,2.12,11.92,4.17,17.66l-30.89,4.62c2.29-6.19,4.65-12.28,4.71-19.23l.93-106.75c.06-6.67-1.31-12.29-4.95-17.95l61.19-.59.08,21.41c-5.29-1.18-10.21-2.29-15.6-2.12l-19.05.59-.14,39.84c11.82-.56,17.96.9,26.93-6.48l-.17,28.61Z"/>
  <path class="st6" d="M805.18,539.96l-28.91-2.22c2.08-5.9,3.38-12.19,3.35-18.76l-.46-95.37c-7.12-1.06-14.24.58-19.81,6.3-1.44-8.18-1.5-15.68-1.2-24.03l63.64.16-.11,21.52c-7.2-2.86-13.89-4.08-22-4.18l.6,96.47c.43,6.93,2.01,12.6,4.9,20.11Z"/>
  <path class="st6" d="M564.52,530.37l-29.23-.48c1.92-5.1,3.72-10.96,3.72-16.91l-.04-90.26c-5.88-.36-12.33.59-16.88,4.31l-3.56,2.91-.95-24.58,64.81.02-.3,21.27c-7.3-2.93-14.63-4.2-22.45-4.02l.35,84.35c.03,8.16,1.29,15.59,4.53,23.4Z"/>
  <path class="st0" d="M216.77,534.97c6.76,4.53,12.58,7.59,20.4,8.53,16.44,1.97,32.22-5.37,39.22-20.92,2.37-5.25,4.59-11.74,4.87-17.73.99-21.17.97-41.6.51-62.85-.15-6.86-1.94-13.16-2.73-20.3,4.52,6,6.57,13.31,6.84,21.01.75,21.71.96,43.06-.02,64.78s-16.61,43.09-40.87,42.2c-10.98-.23-22.42-4.03-28.23-14.73Z"/>
  <path class="st0" d="M541.18,538.53c-1.95-1.19-4.34-3.2-6.36-5.2l33.96-.05c-3.47-7.33-5.51-14.48-5.57-22.36l-.61-85.28c8.05-.59,14.61,1.71,21.72,4.13l1.46-19.62c1.64.1,3.55,2.76,3.46,4.67l-.99,19.97c-7.08-2.69-12.91-4.26-20.7-4.42l.1,88.18c0,7.38,3.63,13.6,6.61,20.72l-33.08-.76Z"/>
  <path class="st0" d="M782.2,546.48c-2.08-1.23-4.62-3.62-6.47-5.74l33.91,2.74c-4.29-8.24-6.2-16.24-6.27-25.53l-.66-91.25c7.59-.74,14.09,1.64,21.4,4.22l1.05-20.94c2.33,2.26,3.85,4.65,3.77,6.78l-.8,19.55c-7.17-2.99-12.84-4.63-20.54-4.95l.18,90.18c.02,10.08,2.54,17.95,7,28.11l-32.57-3.16Z"/>
  <path class="st0" d="M142.05,560.08l-2.95-6.01,34.18-5.14c-1.79-5.35-4.41-10.69-4.43-15.98l-.19-43.17c9.67-1.61,17.72-1.53,26.88,3.01l.68-30.95,4.25,5.87-.29,29.29c-9.16-3.64-18.04-4.13-26.72-2.58l-.08,38.61c-.01,7.57,1.95,13.82,5.43,21.5l-36.76,5.55Z"/>
  <path class="st0" d="M676.33,530.25c-12.9,17.84-44.03,15.13-56.69-2.52,11.61,7.12,23.22,11.01,35.97,7.64,9.77-2.58,17.46-9.1,20.82-18.74,1.9-5.46,3.5-11.39,3.67-17.22l.96-34.4c2.29.38,4.3,2.53,4.26,4.86l-.66,35.12c-.17,9.12-3.04,17.97-8.32,25.27Z"/>
  <path class="st0" d="M774.76,544.04c-9.27-.92-32.83,1.87-37.14-6.59l33.03,1.1-5.36-15.21-18.86-88c-2-9.35-3.01-17.88-4.04-27.62,4.56,2.82,3.64,6.72,4.48,10.85l19.15,94.44c2.18,10.73,4.32,19.52,8.75,31.03Z"/>
  <path class="st1" d="M583.06,582.72c-6.01,2.52-12.49,1.92-19.54,1.42l.07-27.2c10.9-.51,26.06-1.03,27.7,11.59.76,5.8-1.99,11.58-8.23,14.19ZM580.68,577.03c4.65-2.45,4.87-9.26,1.46-12.22-2.9-2.52-8.46-2.96-11.6-1.41l.23,15.14c3.58-.01,7.05,0,9.9-1.51Z"/>
  <path class="st1" d="M263.82,584.16c-12.88,3.5-7.82-9.14-18.33-6.78l-.47,7.04-6.65-.06-.03-27.57,15.68.19c4.99.06,8.6,3.9,9.2,7.52.85,5.09-1.03,8.83-5.51,11.47l6.12,8.19ZM254.73,570.19c2.65-1.67,1.64-5.34.08-7.24l-9.34-.19-.05,8.39c2.87.4,6.71.69,9.31-.96Z"/>
  <path class="st1" d="M551.8,582.53c-.61,4.94-7.19.55-8.75-1.66-2.75-3.9-6.07-7.78-9.55-11.69l-.63,14.73c-1.76.39-4.82.51-6.62.22l-.18-26.94c1.88-.15,5.91-.29,6.98.96l12.25,14.3.72-14.42c.13-1.62,6.07-1.59,6.23-.01.28,7.6.54,16.38-.46,24.51Z"/>
  <path class="st1" d="M674.94,584.15c-12.99,3.17-7.89-9.52-17.78-7l-.71,7c-1.58.52-5.44.4-6.63-.95l.06-26.21,16.1.12c4.62.03,8.3,3.86,8.93,7.42.84,4.76-1.16,8.39-5.8,11.4l5.82,8.21ZM665.93,570.51c1.18-.37,2.47-2.97,2.35-3.97-.53-4.74-7.01-4.03-11.33-3.95l.08,8.59c2.84.14,6.26.14,8.89-.67Z"/>
  <path class="st1" d="M363.03,584.23c-12.48,3.69-8.6-10.72-18.23-6.43l-.46,6.48-6.38-.17-.19-26.97,15.23-.06c4.49-.02,8.79,3.14,9.63,6.81,1.1,4.8-.51,9.06-5.62,12.05l6.03,8.31ZM351.9,571.28c1.58-.01,3.8-2.57,3.96-3.85.14-1.11-1.02-3.78-2.1-4.03-2.38-.55-5.93-.67-8.84-.7l-.05,8.65,7.03-.06Z"/>
  <path class="st1" d="M393.36,573.57l-12.44.35.13,4.76,14.12.22c.84.94.98,4.12.59,5.74l-22.37-.28.2-27.44,20.39-.02c1.44,0,1.84,4.95.68,5.43l-12.65.41c-1.27.05-1.65,4.42-.72,5.07l11.84.53.23,5.22Z"/>
  <path class="st1" d="M294.47,573.38l-12.82.52-.24,4.7,15.01.35v5.6s-22.44.02-22.44.02l.22-27.7,21.82.08.04,5.59-14.29.31c-.2.82-.42,3.78-.42,5.09l12.68.31.44,5.12Z"/>
  <path class="st1" d="M508.57,579.92l-13.41-.17c-1.71,4.58-4.61,5.64-9.39,4.34l12.62-26.65c1.63-.99,6.57-1.05,7.45.8l12.32,26.01-6.25.21c-1.34.05-2.16-2.64-3.34-4.55ZM506.04,573.88l-4.17-9.09-4.17,8.93,8.33.16Z"/>
  <path class="st1" d="M788.38,569.75c3.31,1.3,5.63,4.35,5.3,7.68-.31,3.11-2.77,6.15-6.19,7-6.49,1.61-12.47.45-18.62-3.16.88-1.37,2.59-3.75,3.38-4.69,5.32,1.63,9.83,5.25,14.87-.08l-11.33-4.42c-3.28-1.28-5.69-4.22-5.6-7.49s2.47-6.41,5.86-7.49c5.89-1.89,11.75-.88,16.65,2.28l-2.26,3.71c-1.28,2.1-10.82-4.69-13.46,2.2l11.4,4.48Z"/>
  <path class="st1" d="M425.22,580.92c-2.48-1.81-9.98-1.85-12.67-.29-2.91,2.02-4.67,5.84-9.76,3.41l12.84-26.67c1.61-.8,5.03-.71,6.91.17l12.07,26.47c-4.81,1.99-6.7-.6-9.39-3.1ZM423.07,573.97l-4.45-9.3-4.04,9.42,8.49-.12Z"/>
  <path class="st1" d="M705.72,579.91l-13.67-.06c-1.55,4.69-5.4,5.5-9.52,4.13l12.91-26.79c2.03-.32,5-.19,6.92.29l12.12,26.63c-4.31.98-7.65,1.26-8.77-4.19ZM703,573.98l-4.46-9.29-4.17,9.23,8.63.06Z"/>
  <path class="st0" d="M458.64,531.39c13.8,2.99,26.72,4.75,38.66-2.24,10.28-6.02,16.49-17.08,16.28-29.13l-.19-10.83c4.99,11.6,6.09,26.49-2.68,37.56-12.07,15.24-36.88,18.47-52.07,4.64Z"/>
  <polygon class="st0" points="835.64 551.72 830.01 546.05 890.59 554.3 891.36 527.14 895.63 532.22 895.21 560.95 835.64 551.72"/>
  <polygon class="st0" points="380.62 540.11 374.72 534.8 436.46 533.18 436.93 509.94 441.39 513.99 441.31 539.32 380.62 540.11"/>
  <path class="st0" d="M861.88,519.7c-.01,1-1.46,3.33-2.28,3.13s-2.29-1.99-2.3-3.05l-.29-31.7c9.29-.99,17,2.05,25.5,6.55l.58-32.53,4.71,4.71v32.72c-8.58-3.55-16.3-5.86-25.55-6.28l-.36,26.46Z"/>
  <path class="st0" d="M639.22,508.19c-4.23-2.71-4.5-9.06-4.47-14.27l.27-52.65c.04-7.07,1.44-17.94,9.47-18.62,4-.34,7.68.94,7.93,5.71-3.07.12-6.91.35-8.93,1.94-1.84,1.45-3.65,5.58-3.67,8.44l-.61,69.45Z"/>
  <path class="st0" d="M715.38,541.17l-27.02-.89-7.69-5.37,30.67.62c-1.48-9.9,0-19.16,2.3-29.33l18.67.93c.93.05,2.77,1.17,3.36,1.72s.01,3.19-1.02,3.18l-16.66-.17c-1.78,9.87-2.49,17.95-2.61,29.31Z"/>
  <path class="st0" d="M329.17,541.94c-10.98,1.05-22.5,1.81-33.1,1.58-1.57-.03-4.38-3.15-5.13-4.34l33.54-2.48c-3.13-7.07-4.81-13.5-4.73-20.67l.34-32.29c5.34,3.48,4.12,8.75,4.19,13.26l.42,28.82c.08,5.27,2.55,9.85,4.47,16.11Z"/>
  <path class="st0" d="M344.74,541.63c-1.69.07-3.68-4.3-2.74-5.6l26.77-1.29c-.19-4.32-1.49-7.53-3.51-11.19-3.1-5.61-4.84-11.76-7.07-17.78l-10.86-29.18c11.39-8.86,16.45-22.24,16.22-36.61l-.22-14.15c7.45,17.24,5.54,43.94-11.25,55.89l6.22,18.17,7.81,20.95c2.52,6.76,4.95,12.41,8.19,19.58l-29.55,1.21Z"/>
  <path class="st0" d="M407.07,507.54c-.01,1.1-4.82,1.41-4.73.48l-.36-29.55c8.48-2.22,17.33-.41,26.42,4.2l.3-29.79c1.34.67,4.51,2.99,4.52,4.23l.09,29.5c-9.11-3.51-16.93-4.76-26-3.63l-.23,24.55Z"/>
  <path class="st0" d="M862.02,461.23l-2.51-4.38c-.51,2.34-.41,3.4-2.14,4.63l-.22-32.12c15.99.14,20.16-.85,34.01,4.15l.7-23.78c5.53,3.5,3.63,22.41,3.95,29.32-14.01-5.97-18.75-4.15-33.52-4.4l-.26,26.57Z"/>
  <path class="st0" d="M173.71,461.81c.03.92-4.38,1.39-4.38.32l-.19-32.46c12.54-.98,21.42-2.73,33.91,2.61l.83-22.59,4.12,4.83-.62,22.1c-5.27-2.19-9.79-3.45-15.32-3.12l-17.94,1.05-.41,27.26Z"/>
  <polygon class="st1" points="632 584.25 625.09 584.19 625.16 562.91 616.78 562.38 616.64 556.87 640.33 556.86 640.45 562.49 632.06 562.92 632 584.25"/>
  <path class="st1" d="M319.98,584.5l-6.91-.42-.11-21.15-8.19-.45c-.54-.89-.45-4.42.06-5.7l23.43.08.2,5.7-8.45.36-.03,21.57Z"/>
  <path class="st1" d="M455.17,583.79c-1.81.4-5.11.49-6.7.27l-.17-21.2-8.2-.47-.03-5.52h23.57s-.39,5.53-.39,5.53l-7.7.66-.38,20.74Z"/>
  <path class="st0" d="M407.02,449.7c0,1.01-.79,2.83-1.47,2.94-.91.15-3.35-.65-3.36-1.67l-.44-24.88c14.55-.62,20.84-1,34.57,3.44l.82-20.63c.7.62,3.54,3.81,3.53,5.27l-.11,19.92c-5.36-1.7-9.66-3.67-14.38-3.6l-19.25.3.1,18.92Z"/>
  <polygon class="st1" points="762.38 578.77 762.69 584.62 741.72 584.45 741.85 557 748.76 556.97 748.98 578.43 762.38 578.77"/>
  <polygon class="st1" points="730.43 584.43 723.31 584.36 723.3 556.99 730.36 557.02 730.43 584.43"/>
  <path class="st0" d="M493.05,445.37c-2.19.84-4.25-4.71-2.42-5.74,6.95-3.91,14.44-6.53,21.77-8.88l-1.32-11.04c3.7,4.84,4.75,10.45,6.05,16.38l-24.08,9.28Z"/>
  <path class="st0" d="M662.4,449.82c-.92-.73-2.38-2.24-4.22-4.26,7.2-4.45,14.2-6.69,22.38-8.08l-.45-14.69c3.73,6.38,4.27,13.74,3.75,20.69-7.71,1.64-14.06,3.51-21.46,6.34Z"/>
  <polygon class="st1" points="870.69 577.99 806.99 577.98 808.86 575.98 869.15 575.98 870.69 577.99"/>
  <path class="st1" d="M222.52,577.02c-20.91,1.6-41.34,1.6-63.17.01,20.68-1.69,41.36-1.71,63.17-.01Z"/>
  <path class="st0" d="M473.96,434.64l-.95,5.81c-4.68-4.22-4.91-10.21-1.85-15.4,1.21-2.06,5.09-3.55,7.21-3.36,2.94.27,6.18,3.17,5.79,5.85-2.46.22-5.27.39-7.04,1.2-1.48.67-2.84,3.95-3.16,5.89Z"/>
  <path class="st0" d="M766.56,435.6c-1.01.55-3.04-1.21-3.43-2.48-1.44-4.66,8.14-7.23,12.72-7.27.14,2.21,0,4.64-1.06,5.22l-8.22,4.53Z"/>
  <path class="st0" d="M525.4,435.86c-.23.05-2.07-1.65-2.51-2.54-1.69-3.45,5.95-8.87,12.45-7.32,1.33.32.06,4.54-1.27,5.07-2.91,1.16-5.01,2.41-8.66,4.8Z"/>
  <path class="st0" d="M645.79,483.11l7.98-2.06c.63,2.32-.4,5.14-2.03,6.14-2.24,1.39-3.88.26-5.95-4.09Z"/>
  <path class="st2" d="M251.99,518.53c-4.53,5.47-13.87,4.85-17.47-.94-2.02-3.26-2.89-8.49-2.86-12.63l.51-71.77c.05-6.91,4.74-12.37,10.51-13.19,6.62-.94,12.7,3.73,13.57,10.83,1.56,12.67,1.33,25.21,1.08,38.14l-.71,36.68c-.08,4.19-1.75,9.39-4.64,12.88ZM239.51,504.43l.34-66.51c.01-2.82,2.23-7.13,4.19-8.2,2.16-1.17,5.58-1.12,8.66-1.17-1.16-5.2-5.63-6.35-9.93-5.59-8.01,1.41-7.95,12.25-7.95,20.04v64.7c0,4.22,1.68,8.47,5.1,10.68l-.41-13.94Z"/>
  <path class="st2" d="M329.76,423.04c13.68,1.64,11.39,25.62,6.49,33.17-4.3,6.62-12.96,7.64-19.85,6.49l.09-40.17c4.68-.06,8.87-.02,13.27.5ZM324.34,430.04l10.57.42c-.09-5.6-10.13-5.4-15.4-4.82l.39,33.86c1.92.64,4.52-.53,4.51-2.12l-.08-27.34Z"/>
  <path class="st2" d="M734.07,485.68l-19.88-.56,9.49-51.54,10.39,52.1ZM723.58,481.41c.6-5.38,5.38-27.72-.23-28.68l-5.8,29.09c1.55.45,5.06.41,6.03-.41Z"/>
  <path class="st0" d="M239.51,504.43l.41,13.94c-3.42-2.2-5.11-6.46-5.1-10.68v-64.7c0-7.79-.06-18.62,7.96-20.04,4.3-.76,8.77.39,9.93,5.59-3.08.05-6.5,0-8.66,1.17-1.96,1.06-4.18,5.38-4.19,8.2l-.34,66.51Z"/>
  <path class="st0" d="M324.34,430.04l.08,27.34c0,1.59-2.6,2.77-4.51,2.12l-.39-33.86c5.27-.58,15.31-.78,15.4,4.82l-10.57-.42Z"/>
  <path class="st0" d="M723.58,481.41c-.96.82-4.47.86-6.03.41l5.8-29.09c5.61.95.83,23.3.23,28.68Z"/>
  <g>
    <g id="_x3C_Mirror_Repeat_x3E_">
      <g class="st7">
        <path class="st6" d="M548.62,381.82l-417.76,1.03s5.82-4.92,5.82-4.92c-.34,2.27-.72,4.4-1.12,6.59-1.21,6.5-2.62,12.95-4.25,19.36-5.4,20.26-17.13,63.04-37.79,71.71,0,0,1.21-8.81,1.21-8.81,1.43,1.18,2.45,2.18,3.69,3.41,10.47,10.7,17.74,24.47,20.61,39.17,4.03,31.43,9.94,62.63,16.26,93.69,0,0-3.24-2.61-3.24-2.61,0,0,122.04,1.57,122.04,1.57,0,0,122.04,1.75,122.04,1.75,0,0-122.04,1.75-122.04,1.75l-122.04,1.57-2.63.03c-2.88-12.41-5.66-24.82-8.32-37.26-4.04-18.75-7.74-37.65-10.62-56.65,0,0-.36-2.04-.36-2.04-.51-1.95-.98-4.08-1.64-5.98-2.07-6.56-5.24-12.78-9.22-18.39-3.08-4.35-6.75-8.54-10.86-11.91,0,0-6.86-5.26-6.86-5.26,0,0,8.06-3.55,8.06-3.55,2.66-1.17,5.38-3.73,7.7-6.78,7.29-9.9,11.54-21.84,15.42-33.65,5.49-17.8,9.82-36.31,13.17-54.62,0,0,4.96.01,4.96.01,0,0,417.76,1.03,417.76,1.03,0,0,0,9.76,0,9.76h0Z"/>
      </g>
    </g>
    <g id="_x3C_Mirror_Repeat_x3E_1" data-name="_x3C_Mirror_Repeat_x3E_">
      <g class="st4">
        <path class="st6" d="M509.94,372.06s417.76-1.03,417.76-1.03c0,0,4.96-.01,4.96-.01,0,0,.86,4.93.86,4.93,4.65,21.43,15.89,79.9,35.43,90.13,0,0,8.06,3.55,8.06,3.55-3.15,2.44-8.52,6.31-11.16,9.23-6.44,6.69-11.49,14.72-14.8,23.39-1.21,3.52-2.38,7.27-2.97,10.95-4.82,31.61-11.79,62.78-18.94,93.91,0,0-2.63-.03-2.63-.03,0,0-122.04-1.57-122.04-1.57,0,0-122.04-1.75-122.04-1.75l122.04-1.75,122.04-1.57s-3.24,2.61-3.24,2.61c5.73-28.78,11.59-57.7,15.26-86.79,1.57-15.63,8.1-30.67,18.39-42.55,1.44-1.68,3.34-3.68,4.96-5.19.62-.57,1.15-1.07,1.96-1.73l1.21,8.81c-23.59-9.62-37.48-67.4-42.05-91.07-.4-2.18-.78-4.32-1.12-6.59,0,0,5.82,4.92,5.82,4.92,0,0-417.76-1.03-417.76-1.03,0,0,0-9.76,0-9.76h0Z"/>
      </g>
    </g>
  </g>
</svg>